<?xml version="1.0" encoding="utf-8"?>
<!-- Generator: Adobe Illustrator 23.0.0, SVG Export Plug-In . SVG Version: 6.00 Build 0)  -->
<svg version="1.1" id="レイヤー_1" xmlns="http://www.w3.org/2000/svg" xmlns:xlink="http://www.w3.org/1999/xlink" x="0px"
	 y="0px" viewBox="0 0 731.3 311.8" style="enable-background:new 0 0 731.3 311.8;" xml:space="preserve">
<style type="text/css">
	.st0{enable-background:new    ;}
	.st1{fill:#6A3906;}
	.st2{fill:#009FE8;}
	.st3{fill:#333333;}
</style>
<title>アートボード 1</title>
<g>
	<g class="st0">
		<path class="st1" d="M39.3,299.6h4v3.1c0,4.8-2.1,6.9-6.9,6.9H24.8c-4.8,0-6.9-2.2-6.9-6.9v-17.5c0-4.8,2.1-6.9,6.9-6.9h11.3
			c4.8,0,6.9,2.2,6.9,6.9v3.1h-4v-3.1c0-2.4-0.7-3.4-3.1-3.4H24.8c-2.3,0-3.1,0.9-3.1,3.4v17.5c0,2.4,0.7,3.4,3.1,3.4h11.3
			c2.3,0,3.1-0.9,3.1-3.4L39.3,299.6L39.3,299.6L39.3,299.6z"/>
		<path class="st1" d="M69.1,278.3c4.8,0,6.9,2.2,6.9,6.9v17.5c0,4.8-2.1,6.9-6.9,6.9H57.8c-4.8,0-6.9-2.2-6.9-6.9v-17.5
			c0-4.8,2.1-6.9,6.9-6.9H69.1L69.1,278.3z M72.2,285.2c0-2.4-0.7-3.4-3.1-3.4H57.8c-2.3,0-3.1,0.9-3.1,3.4v17.5
			c0,2.4,0.7,3.4,3.1,3.4H69c2.3,0,3.1-0.9,3.1-3.4L72.2,285.2L72.2,285.2z"/>
		<path class="st1" d="M88.1,309.7h-4v-31.4h23.7v3.7H88.1v10.1h19.2v3.7H88.1V309.7z"/>
		<path class="st1" d="M118.9,309.7h-4v-31.4h23.7v3.7h-19.7v10.1h19.2v3.7h-19.2V309.7z"/>
		<path class="st1" d="M169.4,281.8h-19.7V292h19.2v3.7h-19.2v10.2h19.7v3.7h-23.7v-31.4h23.7V281.8z"/>
		<path class="st1" d="M200.7,281.8H181V292h19.2v3.7H181v10.2h19.7v3.7H177v-31.4h23.7V281.8z"/>
		<path class="st1" d="M264,288.4h-4v-3.1c0-2.4-0.7-3.4-3.1-3.4h-11.3c-2.3,0-3.1,0.9-3.1,3.4v17.4c0,2.4,0.7,3.4,3.1,3.4H257
			c2.3,0,3.1-0.9,3.1-3.4v-6.8h-8.8v-3.8H264v10.5c0,4.8-2.1,6.9-6.9,6.9h-11.3c-4.8,0-6.9-2.2-6.9-6.9v-17.4c0-4.8,2.1-6.9,6.9-6.9
			h11.3c4.8,0,6.9,2.2,6.9,6.9V288.4z"/>
		<path class="st1" d="M297.4,291.3c0,4.8-2.2,6.9-6.9,6.9h-0.8l7.1,11.3h-4.8l-7-11.3h-9v11.4H272v-31.4h18.4
			c4.8,0,6.9,2.2,6.9,6.9L297.4,291.3L297.4,291.3z M276,294.7h14.4c2.3,0,3.1-0.9,3.1-3.4v-6.1c0-2.4-0.7-3.4-3.1-3.4H276V294.7z"
			/>
		<path class="st1" d="M323.4,278.3c4.8,0,6.9,2.2,6.9,6.9v17.5c0,4.8-2.1,6.9-6.9,6.9h-11.3c-4.8,0-6.9-2.2-6.9-6.9v-17.5
			c0-4.8,2.1-6.9,6.9-6.9H323.4L323.4,278.3z M326.3,285.2c0-2.4-0.7-3.4-3.1-3.4H312c-2.3,0-3.1,0.9-3.1,3.4v17.5
			c0,2.4,0.7,3.4,3.1,3.4h11.3c2.3,0,3.1-0.9,3.1-3.4V285.2z"/>
		<path class="st1" d="M359.8,278.3h4v24.4c0,4.8-2.2,6.9-6.9,6.9h-11.3c-4.8,0-6.9-2.2-6.9-6.9v-24.4h4v24.4c0,2.4,0.7,3.4,3.1,3.4
			h11.3c2.3,0,3.1-0.9,3.1-3.4v-24.4H359.8z"/>
		<path class="st1" d="M393.4,278.3h4v31.5h-6.7l-14.3-27.8H376v27.8h-4v-31.4h6.7l14.3,27.8h0.4V278.3z"/>
		<path class="st1" d="M424,278.3c4.8,0,6.9,2.2,6.9,6.9v17.5c0,4.8-2.2,6.9-6.9,6.9h-18.4v-31.4H424z M427.1,285.2
			c0-2.4-0.7-3.4-3.1-3.4h-14.4V306H424c2.3,0,3.1-0.9,3.1-3.4V285.2z"/>
		<path class="st1" d="M464,288.4h-4v-3.1c0-2.4-0.7-3.4-3.1-3.4h-11.3c-2.3,0-3.1,0.9-3.1,3.4c0,1.6,0.2,2.7,0.6,3.4
			c0.4,0.6,1.2,1.1,2.6,1.6l11.3,3.9c2.8,0.9,4.7,1.9,5.5,3.1c1,1.1,1.4,3,1.4,5.7c0,4.8-2.2,6.9-6.9,6.9h-11.3
			c-4.8,0-6.9-2.2-6.9-6.9v-3.1h4v3.1c0,2.4,0.7,3.4,3.1,3.4h11.3c2.3,0,3.1-0.9,3.1-3.4c0-1.6-0.2-2.7-0.6-3.3
			c-0.4-0.6-1.2-1.2-2.6-1.6l-11.3-3.9c-2.8-0.9-4.7-1.9-5.5-3.1c-0.9-1.1-1.4-3.1-1.4-5.7c0-4.8,2.2-6.9,6.9-6.9h11.3
			c4.8,0,6.9,2.2,6.9,6.9L464,288.4L464,288.4z"/>
		<path class="st1" d="M524,278.3h4v24.4c0,4.8-2.2,6.9-6.9,6.9h-11.3c-4.8,0-6.9-2.2-6.9-6.9v-24.4h4v24.4c0,2.4,0.7,3.4,3.1,3.4
			h11.3c2.3,0,3.1-0.9,3.1-3.4v-24.4H524z"/>
		<path class="st1" d="M554.5,278.3c4.8,0,6.9,2.2,6.9,6.9v6.1c0,4.8-2.2,6.9-6.9,6.9H540v11.4h-4v-31.4H554.5L554.5,278.3z
			 M557.5,285.2c0-2.4-0.7-3.4-3.1-3.4H540v12.8h14.4c2.3,0,3.1-0.9,3.1-3.4V285.2z"/>
		<path class="st1" d="M590.1,299.6h4v3.1c0,4.8-2.1,6.9-6.9,6.9h-11.3c-4.8,0-6.9-2.2-6.9-6.9v-17.5c0-4.8,2.1-6.9,6.9-6.9H587
			c4.8,0,6.9,2.2,6.9,6.9v3.1h-4v-3.1c0-2.4-0.7-3.4-3.1-3.4h-11.3c-2.3,0-3.1,0.9-3.1,3.4v17.5c0,2.4,0.7,3.4,3.1,3.4H587
			c2.3,0,3.1-0.9,3.1-3.4V299.6z"/>
		<path class="st1" d="M626.9,278.3l-11.6,21v10.5h-4v-10.5l-11.7-21h4.6l8.8,15.9h0.4l8.9-15.9H626.9L626.9,278.3z"/>
		<path class="st1" d="M654.1,299.6h4v3.1c0,4.8-2.1,6.9-6.9,6.9h-11.4c-4.8,0-6.9-2.2-6.9-6.9v-17.5c0-4.8,2.1-6.9,6.9-6.9H651
			c4.8,0,6.9,2.2,6.9,6.9v3.1h-4v-3.1c0-2.4-0.7-3.4-3.1-3.4h-11.3c-2.3,0-3.1,0.9-3.1,3.4v17.5c0,2.4,0.7,3.4,3.1,3.4h11.3
			c2.3,0,3.1-0.9,3.1-3.4L654.1,299.6L654.1,299.6L654.1,299.6z"/>
		<path class="st1" d="M689.4,306v3.7h-23.6v-31.4h4V306H689.4z"/>
		<path class="st1" d="M719.1,281.8h-19.7V292h19.2v3.7h-19.2v10.2h19.7v3.7h-23.7v-31.4h23.7V281.8z"/>
	</g>
	<g>
		<path class="st2" d="M18,210.7L86,62.1c1.6-3.1,4.1-5.4,6.9-6.9c6.3-3.6,13.9-2.2,13.9-2.2l72.4,157.9h-12.4c0,0-6-0.4-9.8-4
			c-2.6-2.6-4.6-5.4-5.8-8.8L98.3,81.3L45.2,199.2c0,0-3.2,5.8-5.5,7.9c-2.4,1.9-5.2,3.3-8.3,3.9H18V210.7z"/>
		<path class="st2" d="M216,211.1V69.5c0.7-4.4,2.8-8.4,5.8-11.4c4.7-4.7,14-5.2,14-5.2v141.3c0,0,0.1,5.7-5.8,12.2
			C226.6,209.9,216,211.1,216,211.1z"/>
		<path class="st2" d="M287.3,211.1V52.5H343c0,0,55.3-0.1,55.3,47.6c0,38.7-39.7,45.4-39.7,45.4l50.3,64.4h-20c0,0-4.9-1-8-4.1
			c-1.3-1.2-2.6-2.6-3.7-3.9l-55.6-72.5h23c0,0,33.9-1.2,33.9-29.6c0-26.4-30.9-27.1-30.9-27.1h-39.3v117.3c0,0-0.9,10.2-6,15
			C296.8,210.5,287.3,211.1,287.3,211.1z"/>
		<path class="st3" d="M446.4,52.9h26.8c4.3-0.2,8.4,0.7,12.1,2.7c4.5,2.2,9.2,7.2,9.2,7.2l37.3,34.6L590.4,66
			c0,0,48.4-25.8,66.2-35.3c17.9-9.5,44.2-22.3,56.1-27.6c5.5-2.6,6.3,0.5,6.3,0.5L583.7,96.3L535,128c-2.6,1.3-5.3,2.1-8.3,2.2
			c-2.2,0-4.5-0.8-6.1-2.2L446.4,52.9z M631.1,193.6l-59.7-60.8c0,0-1.9-2.8-6.7-2.8c-6.9,0-12.9,5.7-12.9,5.7l-46.9,34.8
			c0,0-111.1,85.1-112.9,86.6c-4.1,3-3.9,8.2,10.3-0.3c5.8-3.6,28.2-16,46.1-26.7c17.4-10.3,60.9-35.1,60.9-35.1l52.5-30.5
			l36.4,35.4c0,0,3.7,5,8,7.2c4.2,2,8.7,3,13.4,2.8h20c0,0,7.8,0.8,3.3-3.9C641.7,205.1,631.1,193.6,631.1,193.6z"/>
	</g>
</g>
</svg>
