<svg id="Layer_13" data-name="Layer 13" xmlns="http://www.w3.org/2000/svg" viewBox="0 0 200 100"><defs><style>.cls-1{fill:#213c6f;}.cls-2{fill:#fff;}</style></defs><title>アートボード 1</title><rect class="cls-1" width="200" height="100"/><path class="cls-2" d="M40,39a3.76,3.76,0,0,1,.69,2.27,5.48,5.48,0,0,1-.89,3A9.88,9.88,0,0,1,37,47V43.29h-.58V56a10.12,10.12,0,0,0-3.53-.6,13.15,13.15,0,0,0-2.34.22,19.84,19.84,0,0,0,3.11-2.45,4.34,4.34,0,0,0,1-1.71A9.65,9.65,0,0,0,35,48.83V42.38a10.84,10.84,0,0,1,.2-2.48,2.94,2.94,0,0,1,.7-1.27,8.17,8.17,0,0,1,2-1.3A6,6,0,0,1,40,39ZM35.67,36a13.09,13.09,0,0,1-2.55.58,13.22,13.22,0,0,1-1.66.11,8.72,8.72,0,0,1-2.59-.37,9.88,9.88,0,0,0-2.35-.46,3.16,3.16,0,0,0-1.8.58,4,4,0,0,0-1.33,1.51A3,3,0,0,0,23,39.47h0a3,3,0,0,1,1-1,2,2,0,0,1,1.19-.23,3.74,3.74,0,0,1,.94.19,8.37,8.37,0,0,0,2.16.38,8.08,8.08,0,0,0,3-.58,15.53,15.53,0,0,0-2.52,2.2,5.26,5.26,0,0,0-1,1.88,13.56,13.56,0,0,0-.33,3.24,8.76,8.76,0,0,0-1.25-.09A2.92,2.92,0,0,0,24,46.3a3.8,3.8,0,0,0-1,2.39v.09a4.72,4.72,0,0,1,.85-.88,3.23,3.23,0,0,1,1.57-.44,2,2,0,0,1,1.81,1.11,4.94,4.94,0,0,1,.39,2.24h-.47a2.64,2.64,0,0,0-2,.87,3.27,3.27,0,0,0-.91,2.17v.3l0,.18a2.33,2.33,0,0,1,1-1.35,1.85,1.85,0,0,1,1.05-.26,1.25,1.25,0,0,1,1,.46,1.72,1.72,0,0,1,.4,1.15,2.73,2.73,0,0,1-.35,1.25,13.15,13.15,0,0,1-1.57,2.13A11.79,11.79,0,0,0,24.2,60a3.17,3.17,0,0,0-.38,1.38,1.69,1.69,0,0,0,.32,1,1.33,1.33,0,0,0,.71.52,1.19,1.19,0,0,0,1-.14A.52.52,0,0,0,26,62l0,0-.07-.07c-.32-.21-.47.07-.94-.42a2,2,0,0,1-.15-1.26,2.53,2.53,0,0,1,1.05-1.47,6,6,0,0,1,3.81-1,9.78,9.78,0,0,1,3.67.66,8,8,0,0,1,2.23,1.33,14.17,14.17,0,0,1,8.22-3.9V50.34a7.33,7.33,0,0,0-.34-2.63,2.74,2.74,0,0,0-1.2-1.27,6.66,6.66,0,0,0-2.62-.69,14.85,14.85,0,0,0,2.9-3.23,5.29,5.29,0,0,0,.8-2.62,4.1,4.1,0,0,0-1-2.76,4.35,4.35,0,0,0-2.09-1.29,28.77,28.77,0,0,0-5.71,2.5,4.88,4.88,0,0,0-1.78,2.28,15.52,15.52,0,0,0-.47,4.58v4.64a7.88,7.88,0,0,1-.82,4,7.55,7.55,0,0,1-3.21,2.53,9.44,9.44,0,0,0,1.63-2.68,10.76,10.76,0,0,0,.4-3.29V43.87a7.82,7.82,0,0,1,1-4.2A11.84,11.84,0,0,1,35,36.38l.71-.38ZM39,46.24a4.42,4.42,0,0,1,1.57,1.24A3.79,3.79,0,0,1,41,49.61H37V47.7c.36-.22,1-.7,2-1.45Zm-2,6.45V50.2h4v2.49Zm1.1,4.19a7.69,7.69,0,0,0-1.1-.67v-2.9h4v2.31a13.51,13.51,0,0,0-2.9,1.31Z"/><path class="cls-2" d="M48.75,49.25l-1.66-4,4.66,1.61v3.92Zm5.9-4.6a.67.67,0,0,1-.43.12,6.25,6.25,0,0,1-1.81-.4,9.41,9.41,0,0,1-2.17-1,3.65,3.65,0,0,1-2.81,1.44,6.82,6.82,0,0,1-.79-.07l-.19.44,1.64,3.92a17.23,17.23,0,0,0-2.3,3.76,6.74,6.74,0,0,0-.53,2.62c0,1.4.78,2.79,2.34,4.19L51.7,56a5.3,5.3,0,0,0,.4,2,5.69,5.69,0,0,0,1.41,1.64l3-2.81-.3-.53a7.69,7.69,0,0,1-.64.56.67.67,0,0,1-.34.09.64.64,0,0,1-.52-.41,5.34,5.34,0,0,1-.23-2V48a6.7,6.7,0,0,1,.2-1.84,9.61,9.61,0,0,1,1-2L55.22,44A2.81,2.81,0,0,1,54.65,44.65Zm-5,12.44a5.05,5.05,0,0,1-2-4.09,9,9,0,0,1,.77-3.28l3.29,1.73V55.2Z"/><path class="cls-2" d="M61.46,46.87l4-3.58,2.23,2.35L69,44.2l.38.42a5.39,5.39,0,0,0-1.16,1.48A5,5,0,0,0,68,48v7.26a3,3,0,0,0,.29,1.5c.12.21.25.32.39.32s.42-.2.9-.6l.33.48-2.93,2.69a5.19,5.19,0,0,1-1.45-1.71,6.73,6.73,0,0,1-.32-2.4V47.08l-1.49-1.44-2.2,2v8.73l1,1.1-2.4,2.19-2.43-2.18,1.05-1.1V48.54a5.78,5.78,0,0,0-.3-2.26c-.14-.26-.29-.4-.47-.4a1.66,1.66,0,0,0-.82.47l-.32-.42,2.89-2.63a5.94,5.94,0,0,1,1.5,1.5,3.27,3.27,0,0,1,.3,1.54Z"/><path class="cls-2" d="M76,57.25l-2-1.66v-10L77.76,47v8Zm-4.78-11.7v11.1l3.21,2.62-3.21,4.22.18.52a14.28,14.28,0,0,1,4.15-.71,7.48,7.48,0,0,1,1.57.17,11.3,11.3,0,0,1,1.74.53,13.34,13.34,0,0,0,3.29-2.1,2.06,2.06,0,0,0,.62-1.4,5.52,5.52,0,0,0-1.18-2.45,6.14,6.14,0,0,1-1-1.78A9.71,9.71,0,0,1,80.48,54V47l2.45.53V44.1L80.4,45.54l-4.21-2.25a13.88,13.88,0,0,1-4.94,2.26Zm7.34,13a16.07,16.07,0,0,0,2.49,3.15l-.57.4a9.29,9.29,0,0,0-2-.9,7,7,0,0,0-2-.28,16.16,16.16,0,0,0-2.86.32L77.72,56a7.28,7.28,0,0,0,.84,2.6Z"/><path class="cls-2" d="M87.33,52.62V48.54l2.45-2.69,2,2.47Zm-.08-14.37a7.09,7.09,0,0,0-1.69,1.4,6.83,6.83,0,0,0-1-1,3.86,3.86,0,0,0-1.38-.52v0a2.48,2.48,0,0,1,1,1.13,5.57,5.57,0,0,1,.41,1.21,10.28,10.28,0,0,1,.11,1.84V53.5a11.17,11.17,0,0,1-.18,2.58,2.2,2.2,0,0,1-.79,1v.3a8.89,8.89,0,0,1,1.91.93,9.21,9.21,0,0,1,1.58,1.41L91,56.25a8.38,8.38,0,0,0,.4,2.1,4.55,4.55,0,0,0,.84,1.36l3.14-2.62-.25-.49a2.79,2.79,0,0,1-.9.62c-.1,0-.21-.09-.32-.28a10.09,10.09,0,0,1-.48-2.23,9.5,9.5,0,0,0-.84-3A6.06,6.06,0,0,0,91,49.88l3.15-3.1-2.78-3.49-4.06,4.43V42.48a8.07,8.07,0,0,1,.36-2.76,3.75,3.75,0,0,1,1.52-1.94v-.07A5.62,5.62,0,0,0,87.25,38.25Zm3.67,17.23-2,1.84-1.6-1.25V53.41l1.6-1.57a4.92,4.92,0,0,1,2,3.67Z"/><path class="cls-2" d="M111.71,52.62V48.54l2.46-2.69,2,2.47Zm-.07-14.37a7.09,7.09,0,0,0-1.69,1.4,6.83,6.83,0,0,0-1-1,3.86,3.86,0,0,0-1.38-.52v0a2.48,2.48,0,0,1,1,1.13,5.57,5.57,0,0,1,.41,1.21,10.28,10.28,0,0,1,.11,1.84V53.5a11.17,11.17,0,0,1-.18,2.58,2.21,2.21,0,0,1-.8,1v.29a7.92,7.92,0,0,1,3.51,2.31l3.85-3.46a8.78,8.78,0,0,0,.41,2.1,4.33,4.33,0,0,0,.83,1.36l3.14-2.62-.26-.49a2.78,2.78,0,0,1-.89.63c-.1,0-.21-.1-.33-.29a10,10,0,0,1-.47-2.23,9.57,9.57,0,0,0-.84-3,6.14,6.14,0,0,0-1.61-1.87l3.15-3.11-2.77-3.45-4.06,4.43V42.48a8.07,8.07,0,0,1,.36-2.76,3.75,3.75,0,0,1,1.52-1.94v-.07A5.51,5.51,0,0,0,111.64,38.25Zm3.67,17.23-2,1.84-1.6-1.25V53.41l1.6-1.57a4.92,4.92,0,0,1,2,3.64Z"/><path class="cls-2" d="M100.84,46.27c.46.18,1.24.57,2.35,1.15v9.75l-3.55-1.64V45.92A5.68,5.68,0,0,1,100.84,46.27Zm.33-3A12.27,12.27,0,0,1,96.91,46v8.39a5.87,5.87,0,0,1-.19,1.77,2.46,2.46,0,0,1-.65.88l.13.31a6.55,6.55,0,0,1,2.22.48,17.15,17.15,0,0,1,3.28,1.87,7.08,7.08,0,0,1,1.34-1.1A23.42,23.42,0,0,1,106,57V45.55a14.15,14.15,0,0,1-4.81-2.26Z"/><path class="cls-2" d="M136.7,38.69A18.22,18.22,0,0,1,140,41a5.44,5.44,0,0,1,1.45,1.94,18,18,0,0,1,.35,3.67h-6.85V40Zm-4,2.25a6.08,6.08,0,0,0-.48-2.45A3.56,3.56,0,0,0,130.76,37a4.52,4.52,0,0,0-4.3-.12,4,4,0,0,0-1.62,1.87l.09.13a3.2,3.2,0,0,1,2.1-.8,2.81,2.81,0,0,1,1.57.47,2.36,2.36,0,0,1,1,1.19,6.93,6.93,0,0,1,.26,2.26v1.1l-3.5,2.66a19.23,19.23,0,0,1-2.48,1.57v.11a4.09,4.09,0,0,1,.85.15,9.1,9.1,0,0,1,3,1.6,5.79,5.79,0,0,1,1.68,2.35,10.83,10.83,0,0,1,.47,3.44,9.51,9.51,0,0,0-3.29,1.41,8.24,8.24,0,0,0-2.93,3.72l.09,0a6.5,6.5,0,0,1,2.75-1.66,10.69,10.69,0,0,1,3.39-.71v6.44H135V58a12.77,12.77,0,0,1,2.45.47,20.58,20.58,0,0,1,2.9,1.15l4.23-4.3v-10a11.43,11.43,0,0,0-.36-3.24,6.72,6.72,0,0,0-1.44-2.35,25.5,25.5,0,0,0-4-3.35L135,39.24V36.37h-.64v3.29Zm0,22.54V41.77l1.63-1.25v23Zm-4.23-16.27a8.93,8.93,0,0,0-1.57-1l3-2.26V48.6a10.14,10.14,0,0,0-1.39-1.39Zm13.33,0v2.38H135V47.21Zm0,3.14v6.78a20.73,20.73,0,0,0-3.67-1.63,12.22,12.22,0,0,0-3.18-.52v-4.6Z"/><path class="cls-2" d="M151.17,46.27c.46.19,1.25.57,2.35,1.15v9.75L150,55.53V45.92A5.68,5.68,0,0,1,151.17,46.27Zm.33-3A12.36,12.36,0,0,1,147.24,46v8.39a5.87,5.87,0,0,1-.19,1.77,2.38,2.38,0,0,1-.66.88l.14.31a6.55,6.55,0,0,1,2.22.48A17.15,17.15,0,0,1,152,59.66a7.34,7.34,0,0,1,1.33-1.1,23.68,23.68,0,0,1,3-1.53V45.55a14.11,14.11,0,0,1-4.82-2.26Z"/><path class="cls-2" d="M164.72,47a5.65,5.65,0,0,0,1.57-.29l-3,4.46-1.88-1.09V45.74A5.12,5.12,0,0,0,164.72,47ZM169,43.62a3.56,3.56,0,0,0,.24-1.29,1.66,1.66,0,0,0-.31-1,.86.86,0,0,0-.68-.39.63.63,0,0,0-.53.29,1.17,1.17,0,0,0-.23.75,1.53,1.53,0,0,0,.53,1,.8.8,0,0,1,.27.52,1,1,0,0,1-.43.84,1.68,1.68,0,0,1-1.18.38,5.12,5.12,0,0,1-1.45-.24,21.69,21.69,0,0,1-2.82-1.16A7.39,7.39,0,0,1,160.9,45a8.13,8.13,0,0,1-2.21,1.09V51.8l3,1.81-1.76,2.62L158.69,58c-.26.36-.47.59-.56.71a.88.88,0,0,0-.28.47.52.52,0,0,0,.14.34.48.48,0,0,0,.31.17,1.09,1.09,0,0,0,.52-.32,3.37,3.37,0,0,1,2.28-.88,5,5,0,0,1,1.57.26,8.19,8.19,0,0,1,1.75.94,9.54,9.54,0,0,1,2.09-1.71,5.38,5.38,0,0,1,2.1-.63V50.85L165.47,49l2.62-3.76A8.5,8.5,0,0,0,169,43.62Zm-3.18,13.51A5.65,5.65,0,0,0,162.6,56a4.31,4.31,0,0,0-.94.11,7.42,7.42,0,0,0-1.11.33l3.29-4.95,2,1.23Z"/><path class="cls-2" d="M170.22,45.67V45l4.12-5.76h.07L174.27,44H177v1.73h-2.73V56l1.52,1.28.87-.77L177,57l-3,2.7a7.79,7.79,0,0,0-3.48-2.39V57a2.15,2.15,0,0,0,.72-.86,4.32,4.32,0,0,0,.23-1.64V45.67Z"/></svg>