<svg id="Layer_1" data-name="Layer 1" xmlns="http://www.w3.org/2000/svg" viewBox="0 0 283.46 289.13"><defs><style>.cls-1{fill:#4e815c;fill-rule:evenodd;}</style></defs><title>Artboard 1</title><path class="cls-1" d="M125,109.32,88.12,131.75V2.83L202.93,60.46h0a42.33,42.33,0,0,1,10.25,7.12c9,9.81,11,20.94,7.57,32.38a34.28,34.28,0,0,1-5.2,10.4,26.43,26.43,0,0,1-8,7.27h0L63.46,204.07V161.3L180.2,90.61,125,62.69v46.63Z"/><path class="cls-1" d="M250.46,275.06H262l3,11.14h16.34L260.7,224.27H250.46v10.4h0c.59,2.22,1.18,4.45,1.48,5.64.44,2.23.3,1.78.59,2.38h0l6.1,20.34h-8.17v12ZM219.41,286.2H235.9l3-11,11.58-.15V263h-8c2.82-9.51,5.93-19.15,8-28.36v-10.4H240.21l-20.8,61.93Z"/><path class="cls-1" d="M193,237.49a7.94,7.94,0,0,1,5.49,3.42c1.05,2.23,2.52,8.31-2.07,11.13a9.19,9.19,0,0,1-3.42,1.19v20.49l7.13,12.48h0c6.09-.15,12.18.3,18.41-.15h0l-16.19-24.8h0c3.71-1,7.28-1.78,10.85-7.42,3-5.65,4.15-13.22-.75-21.54a16.31,16.31,0,0,0-5.79-5.34,20,20,0,0,0-3.12-1.34A44.35,44.35,0,0,0,193,224.27v13.22Zm-6.55,16V237.34h0c1.51.15,4-.15,6.55.15V224.27H171V286.2h15.43V262.14L193,273.72V253.23a47.23,47.23,0,0,1-6.55.29Z"/><path class="cls-1" d="M108.76,286.2h16.33V258.58l19.17,27.62h0c6.84,0,13.66.3,20.36-.15h0l-23.79-31.48,21.85-30v-.3h-19l-18.57,27.92V224.27H108.76V286.2Z"/><polygon class="cls-1" points="62.13 286.2 98.81 286.2 98.81 272.24 78.16 272.24 78.16 262 97.62 262 97.62 248.63 78.16 248.63 78.16 238.09 98.81 238.09 98.81 224.27 62.13 224.27 62.13 286.2 62.13 286.2"/><path class="cls-1" d="M28.85,239.12a14.59,14.59,0,0,1,6.54,3.72c3.71,4.15,3.86,7.57,4,12.47-.15,4.75-.15,9.8-5.79,14a14.86,14.86,0,0,1-4.76,2.08V285.9c1-.14,2.08-.14,2.83-.29a28.65,28.65,0,0,0,7.72-2.23,32.49,32.49,0,0,0,5.05-3,23.67,23.67,0,0,0,6.09-6.09c3.86-5.2,5.49-12,5.49-19a36.07,36.07,0,0,0-1.48-10.84,22,22,0,0,0-4-8.17,23.51,23.51,0,0,0-6.09-6.09,24.25,24.25,0,0,0-5.05-3A27.46,27.46,0,0,0,31.08,225a11.26,11.26,0,0,0-2.23-.29v14.4ZM18.31,272.24v-34h0a57.29,57.29,0,0,1,8.62.45c.73.14,1.33.29,1.92.44v-14.4c-7.57-.9-17.82-.3-26.73-.45h0V286.2H18.76a72.63,72.63,0,0,0,10.09-.3V271.35c-.59.15-1.19.29-1.77.45a55.71,55.71,0,0,1-8.77.44Z"/></svg>