<svg id="レイヤー_1" data-name="レイヤー 1" xmlns="http://www.w3.org/2000/svg" viewBox="0 0 100 100"><defs><style>.cls-1{fill:#36247c;}.cls-2{fill:#fff;}</style></defs><title>アートボード 170</title><circle class="cls-1" cx="50" cy="50" r="49"/><path class="cls-2" d="M63.91,83.5H36.09A19.61,19.61,0,0,1,16.5,63.91V36.09A19.61,19.61,0,0,1,36.09,16.5H63.91A19.61,19.61,0,0,1,83.5,36.09V63.91A19.61,19.61,0,0,1,63.91,83.5ZM36.09,22.75A13.35,13.35,0,0,0,22.75,36.09V63.91A13.35,13.35,0,0,0,36.09,77.25H63.91A13.35,13.35,0,0,0,77.25,63.91V36.09A13.35,13.35,0,0,0,63.91,22.75Z"/><path class="cls-2" d="M72.07,32.13A4.18,4.18,0,1,1,67.84,28h.06A4.17,4.17,0,0,1,72.07,32.13Z"/><path class="cls-2" d="M50,67.32A17.32,17.32,0,1,1,67.32,50h0A17.34,17.34,0,0,1,50,67.32Zm0-28.39A11.07,11.07,0,1,0,61.07,50,11.07,11.07,0,0,0,50,38.93Z"/></svg>