<svg id="Layer_1" data-name="Layer 1" xmlns="http://www.w3.org/2000/svg" viewBox="0 0 311.81 289.13"><defs><style>.cls-1{fill:#ac4581;}.cls-1,.cls-2{fill-rule:evenodd;}.cls-2{fill:#ee7d00;}</style></defs><title>Artboard 1</title><path class="cls-1" d="M65.14,3.07H79.63v148s0,10.68,9.54,10.68H167v16.06H82.36s-17.25,0-17.25-19.13c0-18.88,0-155.64,0-155.64Z"/><path class="cls-1" d="M85.14,3.07H99.58V130s-1,9.87,8.38,9.85c46.48-.08,58.94,0,58.94,0v15.84H93.61s-8.55-.64-8.47-9.4c0-6.23,0-143.26,0-143.26Z"/><path class="cls-1" d="M105,3.07h14.52l0,107.41s-.84,7.31,6.06,7.31H167l-.07,16H111.21S105,132.51,105,125.1V3.07Z"/><path class="cls-1" d="M125,3.07h14.52V89.75s-.92,6.16,5.43,6.16H167v15.85H133.4c-6,0-8.43-1.81-8.43-7.9V3.07Z"/><path class="cls-2" d="M246.6,177.65H232.11l.07-148s0-10.68-9.53-10.68l-77.81,0V2.83l84.62,0s17.25,0,17.24,19.14c0,18.88-.1,155.64-.1,155.64Z"/><path class="cls-2" d="M226.6,177.64H212.15l.06-127s1-9.87-8.37-9.84c-46.48,0-58.94,0-58.94,0V24.94l73.3,0s8.55.65,8.47,9.41c0,6.23-.07,143.26-.07,143.26Z"/><path class="cls-2" d="M206.72,177.63H192.2l0-107.4s.84-7.31-6.06-7.31l-41.36,0,.08-16,55.71,0s6.18,1.24,6.18,8.65c0,6.78-.06,122-.06,122Z"/><path class="cls-2" d="M186.77,177.62H172.25l0-86.68s.92-6.15-5.43-6.15H144.81V68.92h33.57c6,0,8.44,1.81,8.44,7.9,0,6.69,0,100.79,0,100.79Z"/><polygon class="cls-1" points="34.57 202.98 41.7 202.98 41.7 210.98 34.57 210.98 34.57 202.98 34.57 202.98"/><polygon class="cls-1" points="34.57 220.44 41.7 220.44 41.7 269.62 34.57 269.62 34.57 220.44 34.57 220.44"/><polygon class="cls-1" points="287.08 202.89 294.21 202.89 294.21 269.62 287.08 269.62 287.08 202.89 287.08 202.89"/><polygon class="cls-1" points="81.48 220.44 67.11 260.02 52.74 220.44 44.61 220.44 62.46 269.62 71.76 269.62 89.61 220.44 81.48 220.44 81.48 220.44"/><path class="cls-1" d="M14.45,261.8a4.46,4.46,0,0,1-4.22-4.75V203H3.11v55.35c0,6.21,4.5,11.24,10.18,11.24H32V261.8Z"/><path class="cls-1" d="M149.66,228.36a4.46,4.46,0,0,0-4.22,4.75v36.7h-7.13v-38c0-6.21,4.49-11.25,10.17-11.25H156v7.77Z"/><path class="cls-1" d="M134.54,245.58v-1.51c0-14.18-10.56-25.72-23.54-25.72s-23.54,11.54-23.54,25.72S98,269.78,111,269.78c10.94,0,20.29-8,22.86-19.62H127c-2.37,7.42-8.76,12.4-16,12.4-8.75,0-16-7.2-16.88-17Zm-39.63-7.23c2.37-7.79,8.92-12.78,16.1-12.78s13.71,5,16.08,12.78Z"/><path class="cls-1" d="M259.77,218.07c-8.55,0-16,4.94-20.25,12.36-4.18-7.42-11.68-12.36-20.24-12.36s-16.06,5-20.25,12.36c-4.19-7.41-11.69-12.36-20.25-12.36-13.14,0-23.79,11.64-23.79,26V286.3h7.19V262.67a22.71,22.71,0,0,0,16.6,7.39c8.56,0,16.06-4.94,20.25-12.35,4.19,7.41,11.69,12.35,20.25,12.35s16.06-4.94,20.24-12.35c4.2,7.41,11.7,12.35,20.25,12.35,13.14,0,23.79-11.64,23.79-26s-10.65-26-23.79-26Zm-81,44.21c-9.19,0-16.67-8.17-16.67-18.21s7.48-18.22,16.67-18.22,16.67,8.17,16.67,18.22-7.48,18.21-16.67,18.21Zm40.5,0c-9.2,0-16.68-8.17-16.68-18.21s7.48-18.22,16.68-18.22S236,234,236,244.07s-7.48,18.21-16.67,18.21Zm40.49,0c-9.19,0-16.67-8.17-16.67-18.21s7.48-18.22,16.67-18.22,16.68,8.17,16.68,18.22-7.48,18.21-16.68,18.21Z"/><path class="cls-1" d="M303,214.58a6.24,6.24,0,1,1,5.7-6.22,6,6,0,0,1-5.7,6.22Zm0-11.41a5.21,5.21,0,1,0,4.76,5.19,5,5,0,0,0-4.76-5.19Zm-2.48,1.94h2.7a1.85,1.85,0,1,1,.28,3.68v0c.52.2.91.77,1.42,1.67l.74,1.3h-1.21l-.54-1.05c-.77-1.5-1.06-1.79-1.82-1.79h-.59v2.84h-1v-6.69Zm2.41,2.92c.75,0,1.26-.32,1.26-1a1,1,0,0,0-1.1-1h-1.59v2Z"/></svg>