<svg id="レイヤー_1" data-name="レイヤー 1" xmlns="http://www.w3.org/2000/svg" viewBox="0 0 362 100"><title>アートボード 1</title><path d="M361.87,79.15H.13A.13.13,0,0,1,0,79v-.07a.13.13,0,0,1,.13-.14s94-1.26,180.87-1.26S361.87,78.8,361.87,78.8a.13.13,0,0,1,.13.14V79a.13.13,0,0,1-.13.14" style="fill:#00466b"/><polygon points="77.04 0.29 25.9 29.79 66.44 53.26 66.5 41.87 45.73 29.83 86.98 5.99 77.04 0.29" style="fill:#006a9f"/><polygon points="87.09 6.38 46.48 29.79 56.31 35.54 77.27 23.49 77.27 71.16 87.12 65.46 87.09 6.38" style="fill:#002846"/><polygon points="76.81 24.18 76.81 71.23 25.6 41.63 25.6 30.17 66.95 54.09 66.95 29.89 76.81 24.18" style="fill:#00466b"/><path d="M155.52,5.72c16,0,22.75,4.71,22.75,19.58,0,13.39-4.55,20-23.21,20H128V63.72H111.41v-58ZM128,17.79V33.17h24.43c6.22,0,9.1-1.1,9.1-7.72,0-7.37-3.63-7.66-9.1-7.66Z" style="fill:#00466b"/><path d="M211,5.72l28.14,43.72V5.72h16.62v58H231.38L203.25,20.07V63.72H186.72v-58Z" style="fill:#00466b"/><path d="M284,5.72V27.8h35.66V5.72h16.72v58H319.69V39.87H284V63.72H267.41v-58Z" style="fill:#00466b"/><path d="M36.75,89.27c2.76,0,4.06.74,4.06,2.32v1.74c0,1.58-1.3,2.32-4.06,2.32H28.13v4.06H26.6V89.27Zm2.54,2.32c0-1.1-.64-1.5-2.54-1.5H28.13v4.75h8.62c1.9,0,2.54-.41,2.54-1.51Z" style="fill:#00466b"/><path d="M54,91.59v.81H51c-1.9,0-2.53.41-2.53,1.51v5.8H46.9v-5.8c0-1.58,1.29-2.32,4.05-2.32Z" style="fill:#00466b"/><path d="M67.57,91.59c2.81,0,4.05.74,4.05,2.32v3.48c0,1.58-1.24,2.32-4.05,2.32H63.51c-2.82,0-4.06-.74-4.06-2.32V93.91c0-1.58,1.24-2.32,4.06-2.32Zm2.53,2.32c0-1.1-.63-1.51-2.53-1.51H63.51c-1.9,0-2.54.41-2.54,1.51v3.48c0,1.1.64,1.51,2.54,1.51h4.06c1.9,0,2.53-.41,2.53-1.51Z" style="fill:#00466b"/><path d="M88.74,99.71v-5.8c0-1.1-.63-1.51-2.53-1.51H82.15c-1.9,0-2.54.41-2.54,1.51v5.8H78.09v-5.8c0-1.58,1.3-2.32,4.06-2.32h4.06c2.76,0,4.06.74,4.06,2.32v5.8Z" style="fill:#00466b"/><path d="M104,98.9v.81h-3.55c-2.53,0-3.55-.58-3.55-2V90.14h1.52v1.45h5.08v.81H98.38v5.28c0,.94.41,1.22,2,1.22Z" style="fill:#00466b"/><path d="M117.91,91.59c2.82,0,4.06.74,4.06,2.32v3.48c0,1.58-1.24,2.32-4.06,2.32h-4.06c-2.81,0-4-.74-4-2.32V93.91c0-1.58,1.24-2.32,4-2.32Zm2.54,2.32c0-1.1-.64-1.51-2.54-1.51h-4.06c-1.9,0-2.53.41-2.53,1.51v3.48c0,1.1.63,1.51,2.53,1.51h4.06c1.9,0,2.54-.41,2.54-1.51Z" style="fill:#00466b"/><path d="M141.12,89.27h1.52V99.71H140l-9.77-9.62H130v9.62h-1.52V89.27h2.66l9.77,9.63h.25Z" style="fill:#00466b"/><path d="M157.22,91.59c2.82,0,4.06.74,4.06,2.32v2.15H150.63v1.33c0,1.1.63,1.51,2.54,1.51h4.05c1.91,0,2.54-.41,2.54-1.51V97.1h1.52v.29c0,1.58-1.24,2.32-4.06,2.32h-4.05c-2.82,0-4.06-.74-4.06-2.32V93.91c0-1.58,1.24-2.32,4.06-2.32Zm2.54,3.65V93.91c0-1.1-.63-1.51-2.54-1.51h-4.05c-1.91,0-2.54.41-2.54,1.51v1.33Z" style="fill:#00466b"/><path d="M174.85,98.9v.81H171.3c-2.53,0-3.55-.58-3.55-2V90.14h1.52v1.45h5.07v.81h-5.07v5.28c0,.94.41,1.22,2,1.22Z" style="fill:#00466b"/><path d="M204.15,89.27h1.52V99.71h-1.52V94.9H193v4.81h-1.52V89.27H193v4.81h11.16Z" style="fill:#00466b"/><path d="M222.28,89.27c2.82,0,4.06.74,4.06,2.32v5.8c0,1.58-1.24,2.32-4.06,2.32h-6.09c-2.81,0-4.05-.74-4.05-2.32v-5.8c0-1.58,1.24-2.32,4.05-2.32Zm2.54,2.32c0-1.1-.64-1.5-2.54-1.5h-6.09c-1.9,0-2.53.4-2.53,1.5v5.8c0,1.1.63,1.51,2.53,1.51h6.09c1.9,0,2.54-.41,2.54-1.51Z" style="fill:#00466b"/><path d="M246,98.9v.81H232.81V89.27h1.52V98.9Z" style="fill:#00466b"/><path d="M261.47,89.27c2.76,0,4,.74,4,2.32v5.8c0,1.58-1.29,2.32-4,2.32H251.32V89.27ZM264,91.59c0-1.1-.63-1.5-2.53-1.5h-8.63V98.9h8.63c1.9,0,2.53-.41,2.53-1.51Z" style="fill:#00466b"/><path d="M272,99.71V89.27h1.52V99.71Z" style="fill:#00466b"/><path d="M292.79,89.27h1.52V99.71h-2.66l-9.77-9.62h-.25v9.62h-1.52V89.27h2.66l9.77,9.63h.25Z" style="fill:#00466b"/><path d="M315,92.46h-1.52v-.87c0-1.1-.63-1.5-2.54-1.5h-6.08c-1.9,0-2.54.4-2.54,1.5v5.8c0,1.1.64,1.51,2.54,1.51h6.08c1.91,0,2.54-.41,2.54-1.51V94.9h-5.58v-.82H315v3.31c0,1.58-1.24,2.32-4.06,2.32h-6.08c-2.82,0-4.06-.74-4.06-2.32v-5.8c0-1.58,1.24-2.32,4.06-2.32h6.08c2.82,0,4.06.74,4.06,2.32Z" style="fill:#00466b"/><path d="M335.4,92.46h-1.52v-.87c0-1.1-.64-1.5-2.54-1.5h-6.08c-1.91,0-2.54.4-2.54,1.5a1.56,1.56,0,0,0,.43,1.25,6.14,6.14,0,0,0,2.11.65l6.08,1.16a15.61,15.61,0,0,1,2.72.67c1.09.4,1.24.92,1.34,2.07,0,1.58-1.29,2.32-4.06,2.32h-6.08c-2.77,0-4.06-.74-4.06-2.32v-.87h1.52v.87c0,1.1.63,1.51,2.54,1.51h6.08c1.9,0,2.54-.41,2.54-1.51a1.48,1.48,0,0,0-.43-1.23,6.07,6.07,0,0,0-2.11-.66l-6.08-1.15c-.89-.16-1.53-.31-2-.41a5.92,5.92,0,0,1-1.19-.48c-.74-.4-.91-.93-.91-1.87,0-1.58,1.29-2.32,4.06-2.32h6.08c2.77,0,4.06.74,4.06,2.32Z" style="fill:#00466b"/></svg>