<svg id="Layer_1" data-name="Layer 1" xmlns="http://www.w3.org/2000/svg" xmlns:xlink="http://www.w3.org/1999/xlink" viewBox="0 0 198.43 170.08"><defs><style>.cls-1{fill:#00111d;}.cls-2,.cls-28,.cls-3,.cls-30,.cls-31,.cls-32,.cls-33,.cls-34,.cls-35,.cls-36,.cls-38,.cls-4,.cls-5,.cls-6,.cls-8{fill-rule:evenodd;}.cls-2{fill:url(#名称未設定グラデーション);}.cls-3{fill:url(#名称未設定グラデーション_2);}.cls-4{fill:url(#名称未設定グラデーション_3);}.cls-5{fill:url(#名称未設定グラデーション_4);}.cls-6{fill:url(#名称未設定グラデーション_5);}.cls-7{fill:url(#名称未設定グラデーション_6);}.cls-8{fill:url(#名称未設定グラデーション_7);}.cls-9{fill:url(#名称未設定グラデーション_8);}.cls-10{fill:#7f868b;}.cls-11,.cls-27{fill:#fff;}.cls-12{fill:#979ea2;}.cls-13{fill:url(#名称未設定グラデーション_9);}.cls-14{fill:url(#名称未設定グラデーション_10);}.cls-15{fill:url(#名称未設定グラデーション_11);}.cls-16{fill:url(#名称未設定グラデーション_12);}.cls-17{fill:url(#名称未設定グラデーション_13);}.cls-18{fill:url(#名称未設定グラデーション_41);}.cls-19{fill:url(#名称未設定グラデーション_107);}.cls-20{fill:#2e3940;}.cls-21{fill:url(#名称未設定グラデーション_14);}.cls-22{fill:url(#名称未設定グラデーション_762);}.cls-23{fill:url(#名称未設定グラデーション_803);}.cls-24{fill:#485157;}.cls-25{fill:url(#名称未設定グラデーション_14-2);}.cls-26{fill:url(#名称未設定グラデーション_17);}.cls-27{opacity:0.9;}.cls-28{fill:url(#名称未設定グラデーション_16);}.cls-29{fill:none;stroke:#72787c;stroke-linecap:round;stroke-linejoin:round;stroke-width:0.15px;}.cls-30{fill:url(#名称未設定グラデーション_18);}.cls-31{fill:url(#名称未設定グラデーション_27);}.cls-32{fill:url(#名称未設定グラデーション_19);}.cls-33{fill:#b9bdc0;}.cls-34{fill:#798083;}.cls-35{fill:#aeb4b7;}.cls-36{fill:url(#名称未設定グラデーション_20);}.cls-37{fill:#72787c;}.cls-38{fill:url(#名称未設定グラデーション_21);}</style><linearGradient id="名称未設定グラデーション" x1="53.11" y1="-1083.1" x2="145.31" y2="-1175.29" gradientTransform="matrix(1, 0, 0, -1, 0, -1064)" gradientUnits="userSpaceOnUse"><stop offset="0" stop-color="#3f4a51"/><stop offset="0.06" stop-color="#535d63"/><stop offset="0.22" stop-color="#80888a"/><stop offset="0.38" stop-color="#a6abab"/><stop offset="0.54" stop-color="#c3c7c5"/><stop offset="0.7" stop-color="#d7dad7"/><stop offset="0.85" stop-color="#e4e6e2"/><stop offset="1" stop-color="#e8eae6"/></linearGradient><linearGradient id="名称未設定グラデーション_2" x1="53.11" y1="-1083.1" x2="145.31" y2="-1175.29" gradientTransform="matrix(1, 0, 0, -1, 0, -1064)" gradientUnits="userSpaceOnUse"><stop offset="0" stop-color="#f8f8f7"/><stop offset="0.11" stop-color="#f1f1f0"/><stop offset="0.28" stop-color="#dcdede"/><stop offset="0.48" stop-color="#bbbebf"/><stop offset="0.71" stop-color="#8c9295"/><stop offset="0.96" stop-color="#525a60"/><stop offset="1" stop-color="#485157"/></linearGradient><linearGradient id="名称未設定グラデーション_3" x1="131.76" y1="1366.39" x2="131.76" y2="1236" gradientTransform="translate(0 -1236)" gradientUnits="userSpaceOnUse"><stop offset="0" stop-color="#485157"/><stop offset="0.2" stop-color="#00131e"/><stop offset="0.5" stop-color="#00131e"/><stop offset="1" stop-color="#f3f4f2"/></linearGradient><linearGradient id="名称未設定グラデーション_4" x1="37.75" y1="1294.08" x2="89.88" y2="1368.53" gradientTransform="translate(0 -1236)" gradientUnits="userSpaceOnUse"><stop offset="0" stop-color="#2e3940"/><stop offset="0.13" stop-color="#323d44"/><stop offset="0.27" stop-color="#404a50"/><stop offset="0.42" stop-color="#555e63"/><stop offset="0.57" stop-color="#747b7f"/><stop offset="0.72" stop-color="#9ba1a2"/><stop offset="0.88" stop-color="#cacecc"/><stop offset="0.97" stop-color="#eaece9"/></linearGradient><linearGradient id="名称未設定グラデーション_5" x1="95.77" y1="-481.85" x2="160.45" y2="-481.85" gradientTransform="matrix(1, 0, 0, -1, 0, -446)" gradientUnits="userSpaceOnUse"><stop offset="0.4" stop-color="#5d666b"/><stop offset="0.59" stop-color="#5a6469"/><stop offset="0.71" stop-color="#525c62"/><stop offset="0.8" stop-color="#444f56"/><stop offset="0.89" stop-color="#303d45"/><stop offset="0.96" stop-color="#162630"/><stop offset="1" stop-color="#061823"/></linearGradient><linearGradient id="名称未設定グラデーション_6" x1="-1217.71" y1="1402.42" x2="-1217.71" y2="1464.77" gradientTransform="matrix(-1, 0, 0, 1, -1088, -1338.76)" gradientUnits="userSpaceOnUse"><stop offset="0.55" stop-color="#0c1c26"/><stop offset="1" stop-color="#e7e8e4"/></linearGradient><linearGradient id="名称未設定グラデーション_7" x1="56.06" y1="-568.97" x2="56.06" y2="-504.37" gradientTransform="matrix(1, 0, 0, -1, 0, -446)" gradientUnits="userSpaceOnUse"><stop offset="0" stop-color="#7f868b"/><stop offset="0.18" stop-color="#6d757b"/><stop offset="0.54" stop-color="#3d4a52"/><stop offset="0.9" stop-color="#061823"/></linearGradient><linearGradient id="名称未設定グラデーション_8" x1="68.11" y1="-512.91" x2="68.11" y2="-449.88" gradientTransform="matrix(1, 0, 0, -1, 0, -446)" gradientUnits="userSpaceOnUse"><stop offset="0.47" stop-color="#021520"/><stop offset="0.66" stop-color="#636f74"/><stop offset="0.83" stop-color="#b0b6b8"/><stop offset="0.94" stop-color="#e0e3e2"/><stop offset="1" stop-color="#f3f4f2"/></linearGradient><linearGradient id="名称未設定グラデーション_9" x1="128.05" y1="-561.15" x2="70.37" y2="-461.25" gradientTransform="matrix(1, 0, 0, -1, 0, -446)" gradientUnits="userSpaceOnUse"><stop offset="0" stop-color="#5f686e"/><stop offset="1" stop-color="#959b9f"/></linearGradient><linearGradient id="名称未設定グラデーション_10" x1="104.63" y1="-480.01" x2="105.48" y2="-479.89" gradientTransform="matrix(1, 0, 0, -1, 0, -446)" gradientUnits="userSpaceOnUse"><stop offset="0" stop-color="#576166"/><stop offset="1" stop-color="#919599"/></linearGradient><linearGradient id="名称未設定グラデーション_11" x1="99.49" y1="-481.01" x2="105.46" y2="-480.47" gradientTransform="matrix(1, 0, 0, -1, 0, -446)" gradientUnits="userSpaceOnUse"><stop offset="0.42" stop-color="#7f868b"/><stop offset="1" stop-color="#313c43"/></linearGradient><linearGradient id="名称未設定グラデーション_12" x1="103.42" y1="-498.88" x2="108.95" y2="-501.11" gradientTransform="matrix(1, 0, 0, -1, 0, -446)" gradientUnits="userSpaceOnUse"><stop offset="0" stop-color="#7f868b" stop-opacity="0"/><stop offset="0.03" stop-color="#7a8186" stop-opacity="0.03"/><stop offset="0.26" stop-color="#525c62" stop-opacity="0.23"/><stop offset="0.44" stop-color="#3a444b" stop-opacity="0.4"/><stop offset="0.55" stop-color="#313c43" stop-opacity="0.5"/></linearGradient><linearGradient id="名称未設定グラデーション_13" x1="99.4" y1="-453.05" x2="101.59" y2="-453.05" gradientTransform="matrix(1, 0, 0, -1, 0, -446)" gradientUnits="userSpaceOnUse"><stop offset="0.2" stop-color="#7f868b" stop-opacity="0.7"/><stop offset="1" stop-color="#374249" stop-opacity="0.7"/></linearGradient><linearGradient id="名称未設定グラデーション_41" x1="122.35" y1="85.7" x2="123.31" y2="83.82" gradientUnits="userSpaceOnUse"><stop offset="0.03" stop-color="#545e64"/><stop offset="1" stop-color="#2e3940"/></linearGradient><linearGradient id="名称未設定グラデーション_107" x1="26.98" y1="83.7" x2="36.03" y2="89.58" gradientTransform="matrix(-1, 0, 0, 1, 147.01, 0)" gradientUnits="userSpaceOnUse"><stop offset="0.2" stop-color="#313c43"/><stop offset="1" stop-color="#555e64" stop-opacity="0.8"/></linearGradient><linearGradient id="名称未設定グラデーション_14" x1="227.49" y1="704.28" x2="227.77" y2="703.59" gradientTransform="translate(-103.99 -618)" gradientUnits="userSpaceOnUse"><stop offset="0" stop-color="#a3a9ad"/><stop offset="0.9" stop-color="#525b61"/></linearGradient><linearGradient id="名称未設定グラデーション_762" x1="73.91" y1="81.55" x2="75.67" y2="85.49" gradientUnits="userSpaceOnUse"><stop offset="0.37" stop-color="#454e54"/><stop offset="0.5" stop-color="#414a51"/><stop offset="0.64" stop-color="#344047"/><stop offset="0.78" stop-color="#202e37"/><stop offset="0.92" stop-color="#031520"/><stop offset="0.93" stop-color="#00131e"/></linearGradient><linearGradient id="名称未設定グラデーション_803" x1="78.09" y1="84.38" x2="85.14" y2="90.29" gradientUnits="userSpaceOnUse"><stop offset="0.35" stop-color="#475157" stop-opacity="0.2"/><stop offset="1" stop-color="#00131e"/></linearGradient><linearGradient id="名称未設定グラデーション_14-2" x1="278.9" y1="704.24" x2="279.16" y2="703.58" gradientTransform="matrix(-1, 0, 0, 1, 353.83, -618)" xlink:href="#名称未設定グラデーション_14"/><linearGradient id="名称未設定グラデーション_17" x1="47.83" y1="77.37" x2="97.95" y2="77.37" gradientUnits="userSpaceOnUse"><stop offset="0" stop-color="#d8dad9"/><stop offset="1" stop-color="#e3e4e1"/></linearGradient><linearGradient id="名称未設定グラデーション_16" x1="93" y1="-1099.25" x2="98.94" y2="-1099.4" gradientTransform="matrix(1, 0, 0, -1, 0, -1064)" gradientUnits="userSpaceOnUse"><stop offset="0.2" stop-color="#fff"/><stop offset="0.49" stop-color="#fdfdfd"/><stop offset="0.65" stop-color="#f4f5f5"/><stop offset="0.78" stop-color="#e7e9e9"/><stop offset="0.9" stop-color="#d3d7d7"/><stop offset="1" stop-color="#bac0c0"/></linearGradient><linearGradient id="名称未設定グラデーション_18" x1="91.27" y1="-1125.15" x2="97.94" y2="-1070.85" gradientTransform="matrix(1, 0, 0, -1, 0, -1064)" gradientUnits="userSpaceOnUse"><stop offset="0" stop-color="#e3e4e1"/><stop offset="1" stop-color="#d8dad9"/></linearGradient><linearGradient id="名称未設定グラデーション_27" x1="124.9" y1="80.58" x2="129.03" y2="74.9" gradientUnits="userSpaceOnUse"><stop offset="0.1" stop-color="#f7f8f8"/><stop offset="0.8" stop-color="#fcfdfd"/></linearGradient><linearGradient id="名称未設定グラデーション_19" x1="100.61" y1="76.27" x2="150.43" y2="76.27" gradientUnits="userSpaceOnUse"><stop offset="0" stop-color="#e2e3e0"/><stop offset="1" stop-color="#d8dad9"/></linearGradient><linearGradient id="名称未設定グラデーション_20" x1="91.61" y1="-1126.05" x2="97.65" y2="-1126.05" gradientTransform="matrix(1, 0, 0, -1, 0, -1064)" gradientUnits="userSpaceOnUse"><stop offset="0" stop-color="#7d8488"/><stop offset="1" stop-color="#a3a9ad"/></linearGradient><linearGradient id="名称未設定グラデーション_21" x1="99.21" y1="-1130.19" x2="99.21" y2="-1140.4" gradientTransform="matrix(1, 0, 0, -1, 0, -1064)" gradientUnits="userSpaceOnUse"><stop offset="0" stop-color="#fff"/><stop offset="0.11" stop-color="#f6f7f7"/><stop offset="0.28" stop-color="#dedfe1"/><stop offset="0.5" stop-color="#b6babc"/><stop offset="0.75" stop-color="#7f868b"/><stop offset="0.94" stop-color="#525b61"/><stop offset="1" stop-color="#9ba2a6"/></linearGradient></defs><title>アートボード 1</title><path class="cls-1" d="M127.38,159.87h7.3v1.7h-7.3ZM4.5,149.47l-.7,17.21v.3c0,1.5.4,1.8,2.8,1.9v.8c-1.7-.1-2.4-.2-3.3-.2a23.31,23.31,0,0,0-3.3.2v-.8c2.3-.2,2.7-.4,2.7-2.2l.7-16.31v-.2c0-1.51-.5-1.91-2.8-2v-.8c1.3.1,1.8.1,2.7.1a17.2,17.2,0,0,0,3.2-.2l6.21,16.81L19,147.26c1.1.1,2.1.2,3.2.2.8,0,1.4,0,2.61-.1v.8c-2.31.1-2.81.5-2.81,2v.2l.4,16.31c0,1.8.3,2.1,2.71,2.2v.8a29.62,29.62,0,0,0-8.41,0v-.8c2.3-.1,2.8-.5,2.8-2.1v-.2L19,149.37l-5.5,14.8-.4,1.11-.5,1.2-.4,1.3-.4,1.1h-.5l-.4-1.1-.5-1.3-.5-1.3L9.61,164Zm24.82,10.7c.3-3.8,1.6-5.8,3.7-5.8s3.3,1.9,3.5,5.8Zm4.3,8.71c-3,0-4.4-2.3-4.4-7.41H39c-.1-5.1-2.2-7.8-6.1-7.8s-6.4,3.2-6.4,8.3,2.5,8,6.7,8c3.3,0,5.4-2,5.8-5.51h-1.3c-.3,2.81-1.7,4.41-4.1,4.41Zm7.51-14.11v-.6a21.35,21.35,0,0,0,4.4-.8c.2,1.2.2,1.8.3,2.8v.4a4.3,4.3,0,0,1,3.9-3,2.7,2.7,0,0,1,2.9,2.5v.2a1.46,1.46,0,0,1-1.2,1.6h-.2a1.24,1.24,0,0,1-1.4-1.1v-.1a.37.37,0,0,1,.1-.3l.1-.3v-.3c0-.5-.4-.8-1-.8-1.7,0-2.8,2.1-2.8,5.4v6.91c0,1.4.3,1.7,2.4,1.8v.7a29.71,29.71,0,0,0-7.3,0V169c2-.1,2.4-.4,2.4-1.8V156.37c0-1.4-.2-1.6-1.9-1.6Zm24-1.5v5.5h-.7c-.6-2.9-1.8-4.3-3.9-4.3-2.5,0-4,2.7-4,7.4s1.3,6.91,3.9,6.91c2.1,0,3.3-1.5,3.7-4.41h1.4c-.4,3.61-2.3,5.51-5.3,5.51-3.9,0-6.41-3.3-6.41-8s2.71-8.3,6.51-8.3a4.39,4.39,0,0,1,3.4,1.4l.9-1.7Zm5.4,7c.3-3.8,1.61-5.8,3.71-5.8s3.3,1.9,3.5,5.8Zm4.31,8.61c-3,0-4.41-2.3-4.41-7.41h9.91c-.1-5.1-2.2-7.8-6.1-7.8s-6.41,3.2-6.41,8.3,2.5,8,6.71,8c3.3,0,5.4-2,5.8-5.51h-1.3c-.3,2.91-1.8,4.41-4.2,4.41Zm14.71.2c-2.41,0-3.71-2.5-3.71-7.21s1.2-7.1,3.61-7.1,3.7,2.5,3.7,7.3c0,4.61-1.2,7-3.6,7Zm6.1-2.8V147.16a40.14,40.14,0,0,1-5,.9v.6c2.1,0,2.4.2,2.4,2v5.8c-1.2-2-2.2-2.6-4-2.6-3.61,0-6.11,3.4-6.11,8.1s2.5,8,6.21,8a4.25,4.25,0,0,0,4.1-2.7,12.82,12.82,0,0,0,.5,2.7,18,18,0,0,1,3.9-.8l.5-.1v-.6c-2.3-.1-2.5-.2-2.5-2.2Zm6.5-6c.3-3.8,1.61-5.8,3.71-5.8s3.3,1.9,3.5,5.8Zm4.31,8.61c-3,0-4.41-2.3-4.41-7.41h9.81c-.1-5.1-2.2-7.8-6.1-7.8s-6.41,3.2-6.41,8.3,2.5,8,6.71,8c3.3,0,5.4-2,5.8-5.51h-1.3C110.17,167.38,108.77,168.88,106.47,168.88Zm8.2,1.1v-5.61h.7c.6,3,2,4.51,4.31,4.51a3.22,3.22,0,0,0,3.4-2.9v-.1c0-1.11-.6-1.91-2.3-2.61l-1.3-.6-1.31-.7c-2.4-1.1-3.2-2.1-3.2-4,0-2.6,2.1-4.4,5-4.4a5.33,5.33,0,0,1,3.4,1.1l.6-1.4h.6v5.2h-.8c-.3-2.7-1.4-3.9-3.5-3.9a2.91,2.91,0,0,0-3.11,2.7v.1c0,1.3.5,1.8,3.51,3.1l1.4.6c2.5,1.1,3.4,2.2,3.4,4.11,0,2.8-2.2,4.8-5.4,4.8a6.29,6.29,0,0,1-4-1.4l-.8,1.5Zm29.12-11.41c1.8,0,2.8.3,3.5,1.1a5.27,5.27,0,0,1,1.2,3.8c0,3.31-1.7,5.21-4.6,5.21h-1.2c-1.8,0-2.1-.3-2.1-1.7v-8.21Zm-3.1-10.11h2.8c2.8,0,4,1.41,4,4.51a4.91,4.91,0,0,1-1.1,3.5c-.7.8-1.6,1.1-3.5,1.1h-2.3l.1-9.11Zm9.7,4.41a5.34,5.34,0,0,0-2-4.21,7.42,7.42,0,0,0-4.6-1.2h-8.7v.8c2.4.1,2.7.4,2.7,2.21v16.11c0,1.8-.3,2-2.7,2.2v.8h8.3a8.71,8.71,0,0,0,5.2-1.2,6.42,6.42,0,0,0,2.81-5.21,5.34,5.34,0,0,0-2.11-4.4,6.6,6.6,0,0,0-2.6-1.1,4.66,4.66,0,0,0,3.7-4.8Zm6.51,7.4c.3-3.8,1.6-5.8,3.7-5.8s3.3,1.9,3.5,5.8Zm4.2,8.61c-3,0-4.4-2.3-4.4-7.41h9.81c-.1-5.1-2.21-7.8-6.11-7.8s-6.4,3.2-6.4,8.3,2.5,8,6.7,8c3.3,0,5.4-2,5.81-5.51H165.2C164.9,167.38,163.5,168.88,161.1,168.88ZM168.41,155v-.6a21.62,21.62,0,0,0,4.4-1,14.28,14.28,0,0,1,.3,2.9,5.13,5.13,0,0,1,4.5-2.6,4.61,4.61,0,0,1,4.4,2.7,7.71,7.71,0,0,1,.51,3v7.91c0,1.4.3,1.7,2.4,1.8v.7c-1.2-.1-2.4-.2-3.61-.2s-2.4.1-3.6.2V169c1.8-.1,2.2-.4,2.2-1.7v-8.11c0-2.9-.9-4.1-3-4.1s-3.5,1.4-3.5,4.2v8c0,1.3.4,1.7,2.2,1.7v.7a28.11,28.11,0,0,0-7.1,0V169c2-.1,2.4-.4,2.4-1.8V156.47c0-1.4-.2-1.6-1.9-1.6a1.49,1.49,0,0,1-.6.1ZM186,169.68l8.9-14.81h-4.1c-2.2,0-2.7.5-3.9,3.5h-.7l.8-4.3h11.41l-9,14.81h3.9c2.3,0,3.2-.9,4.2-3.9h.71l-.91,4.8Z"/><path class="cls-2" d="M99.21,0a65.2,65.2,0,1,0,65.2,65.2A65.2,65.2,0,0,0,99.21,0Zm0,122.69a57.5,57.5,0,1,1,57.5-57.49A57.49,57.49,0,0,1,99.21,122.69Z"/><path class="cls-3" d="M99.21,0a65.2,65.2,0,1,0,65.2,65.2A65.2,65.2,0,0,0,99.21,0Zm0,126.49a61.3,61.3,0,1,1,61.3-61.29A61.29,61.29,0,0,1,99.21,126.49Z"/><path class="cls-4" d="M99.21,0h0l-.1.3h.1c36,0,63.2,28.9,63.2,64.9,0,33.8-29.3,61.79-63.2,61.79h-.1v3.4h.1A65.2,65.2,0,1,0,99.21,0Z"/><path class="cls-5" d="M41.72,65.2a61.44,61.44,0,0,1,1-10.6,58.65,58.65,0,0,0,1.4,32.9C49,101.8,68.61,126,99.21,126h0v-3.4h0A57.34,57.34,0,0,1,41.72,65.2Z"/><path class="cls-6" d="M143,22.4C126.81,6,110.11,4,95.81,4c-.1,0,0,.4,0,.4A61.24,61.24,0,0,1,141.91,25,59.48,59.48,0,0,1,156,54.9c.2,1.3.3,2,.3,2,.1.4.2,1.5.2,1.5a8.49,8.49,0,0,1,.3.9,5.93,5.93,0,0,0,1.2,2c.9,1,1.1,1.1,1.3,1.8a8.47,8.47,0,0,1,.39,2.71c0,.6-.07,1.89-.07,1.89h.68C160.51,66.8,162.41,41.7,143,22.4Z"/><path class="cls-7" d="M159.71,64.5h.8c0,35.2-26.9,62-61.6,62V126C133.31,126,159.71,98.5,159.71,64.5Z"/><path class="cls-8" d="M45.92,95.6c-5.4-9.7-8.8-22.1-7.5-37.2h-.8c-.1.6-.1,1-.2,1.6a2.2,2.2,0,0,1-.1.8h0a.37.37,0,0,1-.1.3,5.29,5.29,0,0,1-1.1,2.1H36a7.12,7.12,0,0,0-1.1,1.7V65c-.1.2-.1.3-.2.5h0v.1a7.55,7.55,0,0,0-.3,2.3c0,.1.2,15.3,9,28.7,14.19,21.59,34.29,26.29,34.29,26.29S56.31,114.29,45.92,95.6Z"/><path class="cls-9" d="M37.92,66H37C37,30.8,64.51,3.4,99.21,3.4v.5C64.81,3.9,37.92,32.1,37.92,66Z"/><path class="cls-10" d="M56.21,22.2a60.84,60.84,0,1,0,43-17.8A60.72,60.72,0,0,0,56.21,22.2Zm-18.79,43A61.8,61.8,0,1,1,99.21,127h0A61.82,61.82,0,0,1,37.42,65.2Z"/><path class="cls-11" d="M56.11,22.1A60.84,60.84,0,1,0,99.31,4.2,61,61,0,0,0,56.11,22.1ZM37.62,65.2a61.6,61.6,0,1,1,61.59,61.59h0A61.61,61.61,0,0,1,37.62,65.2Z"/><path class="cls-12" d="M99.21.4A64.8,64.8,0,1,1,34.42,65.2,64.91,64.91,0,0,1,99.21.4m0-.4a65.2,65.2,0,1,0,65.2,65.2A65.2,65.2,0,0,0,99.21,0Z"/><path class="cls-13" d="M99.21,7.9A57.3,57.3,0,1,1,41.92,65.2,57.29,57.29,0,0,1,99.21,7.9m0-.4a57.7,57.7,0,1,0,57.7,57.7A57.78,57.78,0,0,0,99.21,7.5Z"/><path class="cls-14" d="M106,61l2.9-1.4L101.5,7.7l-.3-.4,6.7,51.3a1.64,1.64,0,0,1-.7,1.6Z"/><path class="cls-15" d="M99.2,5.8,99.6,64c0,.3.3.2.4.2l6.4-3.3c1.4-.8,1.7-1.5,1.6-2.3L101.4,7.8a.52.52,0,0,0-.2-.4A7.67,7.67,0,0,0,99.2,5.8Z"/><path class="cls-16" d="M100,64.1l6.4-3.3c1.4-.8,1.7-1.5,1.6-2.3l-2.3-17.3h-3.1s1.2,10.2.7,16.1C102.7,62.1,100,64.1,100,64.1Z"/><path class="cls-17" d="M99.2,5.8l2.2,2.5-.1-.6a.52.52,0,0,0-.2-.4A7.21,7.21,0,0,0,99.2,5.8Z"/><path class="cls-10" d="M99.2,5.8,99.6,64c0,.5.6-.1.8-.3,3.5-2.7,2.9-9.6,2.9-9.6L100.2,9.2A7.3,7.3,0,0,0,99.9,7,4.33,4.33,0,0,0,99.2,5.8Z"/><path class="cls-18" d="M99.47,66.1c0-.2.2-.3.3-.2l50.78,29a3.83,3.83,0,0,1-.88.57,3.3,3.3,0,0,1-2.7.3L99.37,76.5c-.1,0-.1-.1-.1-.2Z"/><path class="cls-19" d="M99.47,66.1c0-.2.2-.3.3-.2l50.8,29a3.9,3.9,0,0,1-.9.59,3.3,3.3,0,0,1-2.7.3L99.37,76.5c-.1,0-.1-.1-.1-.2Z"/><path class="cls-20" d="M99.47,66.1c0-.2.2-.3.4-.2l50.68,29s-.1.17-.7.47a3.34,3.34,0,0,1-2.68.33S110.77,79,102,70.5C99.07,67.9,99.47,66.1,99.47,66.1Z"/><path class="cls-21" d="M99.27,75.7v.6c0,.1,0,.2.1.2L147.1,95.85a2.18,2.18,0,0,0,.6.1h.4Z"/><path class="cls-22" d="M99.15,76.3c0,.1,0,.2-.1.2L51.46,95.8a3.8,3.8,0,0,1-2.7-.34A4.44,4.44,0,0,1,48,95L98.65,65.9c.1-.1.3,0,.3.2Z"/><path class="cls-23" d="M99.15,76.3c0,.1,0,.2-.1.2L51.46,95.8a3.3,3.3,0,0,1-2.7-.3A3.17,3.17,0,0,1,48,95L98.65,65.9c.1-.1.3,0,.3.2Z"/><path class="cls-24" d="M96.74,71.1c-2.51,2-9.34,5.5-21.64,11.59-6.47,3.2-25.94,13-26.53,12.68s-.7-.47-.7-.47l50.68-29c.2-.1.4,0,.4.2C99,66.1,98.87,69.5,96.74,71.1Z"/><path class="cls-25" d="M50.36,95.9h.4a2.18,2.18,0,0,0,.6-.1L99.05,76.5c.1,0,.1-.1.1-.2v-.6Z"/><path class="cls-26" d="M90.12,59.94,48.31,92.16h0a5.85,5.85,0,0,0-.38,1.26,7,7,0,0,0-.09,1.37l50-29.64a.18.18,0,0,0,0-.31l-7.72-4.9Z"/><path class="cls-27" d="M92.81,61.63a1.71,1.71,0,0,0-1.15-.1,3.94,3.94,0,0,0-.86.49L48,93.15l-.06.3a6.13,6.13,0,0,0-.09,1.16L97.35,65.3a.43.43,0,0,0,.11-.73Z"/><path class="cls-28" d="M97.87,6.69a4.5,4.5,0,0,0-1,1L89.5,59.6,98.9,65,99,5.81A12.67,12.67,0,0,0,97.87,6.69Z"/><line class="cls-29" x1="99.06" y1="5.81" x2="98.71" y2="63.6"/><path class="cls-30" d="M97.71,6.83a6.36,6.36,0,0,0-.51.48,4.28,4.28,0,0,0-.4.49h0L89.45,59.26a.47.47,0,0,0,.27.49L93.3,61.4a1.21,1.21,0,0,1-.5-.5h0a3.15,3.15,0,0,1-.5-2.3C92.3,58.4,97.71,6.83,97.71,6.83Z"/><path class="cls-31" d="M108.9,59.6,100.22,65a.2.2,0,0,0,0,.33l50.37,29.42a5.6,5.6,0,0,0-.07-1.43,5.47,5.47,0,0,0-.35-1.25Z"/><path class="cls-32" d="M108.9,59.6l-8.24,5.12s-.08.07,0,.13.12,0,.12,0l5.74-2.25a2.72,2.72,0,0,1,2.6.34l41.35,30-.26-.85Z"/><path class="cls-33" d="M100.67,64.71l-.4.27s-.14.07-.14.19a.26.26,0,0,0,.17.23l50.3,29.4v-.1L100.73,65.17a.39.39,0,0,1-.18-.19C100.51,64.86,100.67,64.71,100.67,64.71Z"/><polygon class="cls-34" points="108.9 59.6 108.07 60.16 150.34 92.56 150.1 91.9 108.9 59.6"/><polygon class="cls-35" points="108.9 59.6 108.53 59.83 121 69.05 108.9 59.6"/><polygon class="cls-36" points="91.6 60.7 91.9 60.2 97.6 63.9 91.6 60.7"/><path class="cls-37" d="M96.94,7.62l-.14.18L89.45,59.31l0,.07a.75.75,0,0,1-.23.42l-40.77,32-.19.54L90.2,60l1.4.8.3-.6a7.63,7.63,0,0,1-1.1-.8c-.4-.4-.4-.4-.3-1.6S97.09,7.43,97.09,7.43"/><polygon class="cls-38" points="98.82 66 99.61 66 99.31 76.5 99.11 76.5 98.82 66"/><path class="cls-11" d="M100.41,65.37h0c-.3-.1-.3-.3,0-.5l4.7-3c1-.6,2-1.2,3-1.9-1.1.5-2.1,1-3.2,1.6l-4.9,2.5h0c-.3.1-.4.1-.4-.2l-.4-58.09H99l-.3,58.09c0,.3-.2.3-.4.2h0l-4.9-2.6c-1.1-.6-2.2-1.2-3.3-1.7-.1.1,1.2.9,1.2.9l6.5,4h0c.3.2.3.3,0,.5L47.86,94.76v.1H48l50.45-29c.2-.1.4,0,.4.3h.8c0-.3.1-.4.4-.3l50.53,29.05.06,0v-.07Z"/></svg>