<svg id="Layer_1" data-name="Layer 1" xmlns="http://www.w3.org/2000/svg" viewBox="0 0 286.3 232.44"><defs><style>.cls-1{fill:#868686;}.cls-2{fill:#ac1f24;}.cls-3{fill:#fff;}</style></defs><title>アートボード 2</title><path class="cls-1" d="M7,223.57c-.33,2.18-.84,4.68-2.64,5.07a8.32,8.32,0,0,1-1.92.19c-.65,0-1,.13-1,.46,0,.57.51.7,1.15.7,2.06,0,5.14-.19,6.37-.19s4,.19,6.74.19c1,0,1.55-.13,1.55-.7,0-.33-.45-.46-1-.46a12.26,12.26,0,0,1-2.7-.32c-1.09-.26-1.92-.84-1.92-2.06a25.11,25.11,0,0,1,.18-3l3.35-25.57h.25c2.25,4.82,6.11,12.92,6.69,14.27.77,1.79,5.85,11.63,7.39,14.58,1,1.93,1.67,3.22,2.25,3.22s.9-.58,2.38-3.6l14-29.18h.26l3.86,28.28c.25,1.8.06,2.63-.33,2.76s-.71.38-.71.71.39.57,1.88.71c2.56.19,11.43.38,13,.38.91,0,1.68-.19,1.68-.7s-.45-.46-1-.46a12.72,12.72,0,0,1-4-.64c-1.93-.58-2.57-2.44-3.15-6.49L53.79,182c-.19-1.35-.58-2-1.16-2s-1,.52-1.42,1.55L33.74,218.23,16.19,182c-.83-1.66-1.22-2-1.73-2s-.9.58-1.09,1.68Zm67.82-12.22c0,6.23,0,11.31-.32,14-.19,1.87-.57,3-1.86,3.21a9.82,9.82,0,0,1-2.31.26c-.77,0-1,.2-1,.52s.44.64,1.28.64c2.57,0,6.62-.19,8.1-.19,1.73,0,5.78.19,10,.19.71,0,1.23-.19,1.23-.64s-.33-.52-1-.52a25,25,0,0,1-3.28-.26c-1.93-.25-2.38-1.41-2.57-3.14-.26-2.77-.26-7.85-.26-14.08V200c0-9.76,0-11.56.13-13.62.13-2.25.64-3.34,2.38-3.66a10.8,10.8,0,0,1,1.92-.2c.65,0,1-.12,1-.64s-.51-.51-1.35-.51c-2.44,0-6.23.19-7.83.19-1.87,0-5.92-.19-8.36-.19-1,0-1.54.13-1.54.51s.39.64,1,.64a9.3,9.3,0,0,1,2.31.26c1.42.32,2.06,1.41,2.19,3.6s.12,3.86.12,13.62ZM105.22,200c0-9.76,0-11.56.12-13.62.14-2.25.65-3.34,2.39-3.66a16.92,16.92,0,0,1,2.5-.2c.77,0,1.16-.12,1.16-.58s-.45-.57-1.35-.57c-2.51,0-7.2.19-8.74.19-1.74,0-5.78-.19-8.8-.19-1,0-1.42.13-1.42.57s.39.58,1.1.58a9.46,9.46,0,0,1,2.12.2c2.12.45,2.63,1.47,2.76,3.66s.13,3.86.13,13.62v11.31c0,5.92,0,11-.32,13.7-.26,1.85-.58,3.27-1.87,3.52a9.68,9.68,0,0,1-2.31.26c-.77,0-1,.2-1,.52s.45.64,1.29.64c2.57,0,6.61-.19,8.1-.19,5.2,0,9.44.38,18.69.38,3.35,0,3.67-.32,4.06-1.73a51.07,51.07,0,0,0,1-7.39c0-.77-.06-1.09-.52-1.09s-.64.38-.7,1a8,8,0,0,1-1.68,3.85c-1.6,1.74-4.1,1.81-7.51,1.81-5,0-6.69-.46-7.78-1.42-1.35-1.16-1.35-5.6-1.35-13.82Zm25.18,11.31c0,5.92,0,11-.32,13.7-.26,1.85-.58,3.27-1.87,3.52a9.68,9.68,0,0,1-2.31.26c-.77,0-1,.2-1,.52s.45.64,1.29.64c2.57,0,6.62-.19,8.09-.19,3.79,0,8.1.38,17.8.38,2.45,0,3,0,3.47-1.67a49.12,49.12,0,0,0,.84-7.14c0-.64,0-1.15-.51-1.15s-.58.26-.71,1c-.45,2.64-1.22,4-2.9,4.76s-4.36.77-6,.77c-6.56,0-7.59-1-7.72-5.4-.06-1.86,0-7.77,0-10v-5.07c0-.39.07-.65.39-.65,1.54,0,7.91.07,9.13.19,2.37.26,3.28,1.23,3.6,2.51a18.66,18.66,0,0,1,.26,2.32.5.5,0,0,0,.57.58c.57,0,.57-.71.57-1.22s.14-3,.26-4.31c.2-3.28.52-4.31.52-4.69s-.19-.52-.45-.52-.58.32-1,.84-1.54.83-3.09,1-8.86.13-10.27.13c-.39,0-.46-.26-.46-.7V185.46c0-.45.13-.64.46-.64,1.28,0,8,.12,9.12.25,3.22.39,3.86,1.15,4.31,2.32a6.88,6.88,0,0,1,.38,2.31c0,.58.13.9.58.9s.58-.39.64-.71c.13-.77.26-3.6.32-4.24.2-3,.52-3.73.52-4.18s-.07-.58-.39-.58a6.1,6.1,0,0,0-1,.26,25.43,25.43,0,0,1-2.77.39c-1.22.06-14,.06-16.06.06-1.8,0-5.85-.19-9.26-.19-1,0-1.41.13-1.41.57s.39.58,1.09.58a13.1,13.1,0,0,1,2.51.2c2.12.45,2.63,1.47,2.76,3.66s.13,3.86.13,13.62Zm37.16-17.09h.19c1.16,1.22,8.29,9.25,15.3,16.2,6.68,6.61,14.91,15,18.95,18.89.71.7,1.48,1.41,2.19,1.41s.83-.58.83-2l.71-40.55c.06-3.6.58-4.95,2.38-5.46a6.74,6.74,0,0,1,1.93-.2c.77,0,1.15-.19,1.15-.58s-.64-.57-1.48-.57c-3.14,0-5.59.19-6.3.19-1.34,0-4.43-.19-7.77-.19-1,0-1.67.06-1.67.57s.26.58,1,.58a10.41,10.41,0,0,1,3.41.39c1.54.64,2.12,1.87,2.18,5.79l.64,28.84h-.32c-1.09-1-9.77-10.27-14.14-14.64-9.38-9.32-19.14-19.8-19.92-20.63-1.09-1.16-1.67-2-2.38-2s-.83.89-.83,2.18l-.58,38c-.06,5.59-.32,7.46-2,8a11.28,11.28,0,0,1-2.89.32c-.64,0-1,.13-1,.52,0,.58.57.64,1.42.64,3.34,0,6.35-.19,6.93-.19,1.23,0,3.79.19,8,.19.9,0,1.48-.13,1.48-.64s-.38-.52-1.09-.52a10.07,10.07,0,0,1-3.34-.45c-1.29-.45-2.12-2.12-2.26-7.13Zm51.26,17.09c0,6.23,0,11.31-.31,14-.2,1.87-.59,3-1.87,3.21a9.82,9.82,0,0,1-2.31.26c-.77,0-1,.2-1,.52s.45.64,1.29.64c2.56,0,6.62-.19,8.09-.19,1.74,0,5.78.19,10,.19.7,0,1.22-.19,1.22-.64s-.32-.52-1-.52a25,25,0,0,1-3.28-.26c-1.93-.25-2.38-1.41-2.57-3.14-.26-2.77-.26-7.85-.26-14.08V200c0-9.76,0-11.56.13-13.62.13-2.25.64-3.34,2.38-3.66a10.82,10.82,0,0,1,1.93-.2c.63,0,1-.12,1-.64s-.52-.51-1.35-.51c-2.45,0-6.24.19-7.85.19-1.85,0-5.91-.19-8.35-.19-1,0-1.54.13-1.54.51s.39.64,1,.64a9.19,9.19,0,0,1,2.31.26c1.41.32,2.06,1.41,2.19,3.6s.12,3.86.12,13.62Zm39.46,19.54c16.32,0,26.6-11.64,26.6-26.35s-10-24-26-24c-19.28,0-26.54,14.2-26.54,25.19,0,11.37,7.46,25.19,25.9,25.19m2.69-3.22c-12.33,0-19.72-10.6-19.72-24,0-16,8.41-20.11,15.81-20.11,10.54,0,18.82,8.94,18.82,23.33,0,18.57-10.41,20.75-14.91,20.75"/><circle class="cls-2" cx="143.15" cy="81.34" r="79.78"/><path class="cls-3" d="M93.41,112.52c-.59,4-1.55,8.7-4.89,9.41-1.79.37-5.45.72-5.45.72v1.79h29v-1.79s-4.29-.48-6.45-1-3.57-1.56-3.57-3.82a44.71,44.71,0,0,1,.36-5.6l6.2-47.48H109c4.18,8.94,11.34,24,12.41,26.49,1.44,3.33,10.86,21.58,13.73,27.07,1.9,3.57,3.09,6,4.17,6s1.66-1.08,4.41-6.68l26-54.16h.49L177.39,116c.48,3.35.12,4.89-.6,5.13s-7.9,1.55-7.9,1.55v1.79H206v-1.79A54.79,54.79,0,0,1,197,121.1c-3.58-1.07-4.76-4.53-5.84-12L180.25,35.33c-.35-2.5-1.08-3.69-2.15-3.69s-1.79,1-2.63,2.87L143,102.61,110.47,35.33c-1.55-3.09-2.27-3.69-3.21-3.69s-1.69,1.07-2,3.11Z"/></svg>