<svg id="レイヤー_1" data-name="レイヤー 1" xmlns="http://www.w3.org/2000/svg" xmlns:xlink="http://www.w3.org/1999/xlink" viewBox="0 0 264.51 144.76"><defs><style>.cls-1{fill:none;}.cls-2{clip-path:url(#clip-path);}.cls-3{fill:#0099d9;}.cls-4{fill:#28a838;}.cls-5{fill:#d7a600;}.cls-6{fill:#c60f28;}.cls-7{fill:#00973b;}.cls-8{fill:#427935;}.cls-9{fill:#fabd00;}.cls-10{fill:#e83819;}.cls-11{fill:#f5a200;}.cls-12{fill:#0075ba;}.cls-13{fill:#970b31;}.cls-14{fill:#00a6d9;}.cls-15{fill:#ed6a02;}.cls-16{fill:#e5001e;}.cls-17{fill:#dc007a;}.cls-18{fill:#003067;}.cls-19{fill:#d39200;}.cls-20{fill:#004c88;}</style><clipPath id="clip-path"><rect class="cls-1" x="-174.21" y="-444.38" width="612.28" height="858.9"/></clipPath></defs><title>アートボード 1</title><g class="cls-2"><path class="cls-3" d="M53.26,131.33A21.18,21.18,0,0,1,44,137.52a39.08,39.08,0,0,1-13.32,2.26,26.39,26.39,0,0,1-13.51-3.26,22.38,22.38,0,0,1-9-9.68,34.39,34.39,0,0,1-3.34-15l0-4A36.43,36.43,0,0,1,7.67,92.46a22.11,22.11,0,0,1,8.55-10A24.88,24.88,0,0,1,29.4,79q10.53-.08,16.5,4.91T53,98.43l-11.88.08c-.56-3.38-1.78-5.86-3.65-7.42s-4.43-2.33-7.68-2.3a10.79,10.79,0,0,0-9.44,4.74q-3.23,4.69-3.2,13.93l0,3.78q.08,9.32,3.64,14.05T31.25,130c4.58,0,7.84-1,9.78-3L41,116.77l-11.1.08-.06-9,23.3-.16Z"/><path class="cls-3" d="M154,125.93l-21.4.14-4,12.23-13,.09L137.3,79,148.61,79,171.18,138l-13,.09Zm-18.17-9.76,14.8-.1L143.06,94Z"/><polygon class="cls-3" points="187.01 128.1 212.92 127.92 212.98 137.72 174.88 137.99 174.47 78.77 186.68 78.69 187.01 128.1"/><path class="cls-3" d="M248.75,121.94a6.3,6.3,0,0,0-2.48-5.29q-2.45-1.83-8.81-3.84a62.06,62.06,0,0,1-10.07-4q-10.12-5.39-10.19-14.61a14.29,14.29,0,0,1,2.65-8.58,17.6,17.6,0,0,1,7.72-5.93,29.34,29.34,0,0,1,11.36-2.19,26.58,26.58,0,0,1,11.32,2.22A18,18,0,0,1,258,86.17a17,17,0,0,1,2.81,9.5l-12.2.08a8,8,0,0,0-2.61-6.3c-1.72-1.5-4.12-2.23-7.21-2.21a11.25,11.25,0,0,0-6.94,1.94,6,6,0,0,0-2.45,5A5.71,5.71,0,0,0,232.34,99a33.06,33.06,0,0,0,8.59,3.6q10.42,3.06,15.22,7.66A15.48,15.48,0,0,1,261,121.78a14.27,14.27,0,0,1-5.74,12.1q-5.77,4.41-15.62,4.48a30.33,30.33,0,0,1-12.47-2.42,19.69,19.69,0,0,1-8.6-6.79,17.57,17.57,0,0,1-3-10.07l12.24-.08q.08,9.8,11.78,9.72a11.4,11.4,0,0,0,6.78-1.82,5.76,5.76,0,0,0,2.41-5"/><path class="cls-4" d="M74.92,100.8a17.09,17.09,0,0,1,2.67-3.43l-8.75-9.59A29.94,29.94,0,0,0,63.29,95Z"/><path class="cls-5" d="M96.37,94a17,17,0,0,1,3.67,2.3l8.77-9.58A29.74,29.74,0,0,0,101,81.9Z"/><path class="cls-6" d="M116.46,96.91l-11.63,5.8a16.17,16.17,0,0,1,1.16,4.11l12.94-1.22a29.78,29.78,0,0,0-2.47-8.69"/><path class="cls-7" d="M104,101l11.62-5.8A30.21,30.21,0,0,0,110.19,88l-8.77,9.58A17.12,17.12,0,0,1,104,101"/><path class="cls-8" d="M72.61,109.29c0-.26,0-.52,0-.78L59.7,107.35c0,.64-.07,1.29-.07,1.94a29.87,29.87,0,0,0,.88,7.19L73,112.9a16.5,16.5,0,0,1-.4-3.61"/><path class="cls-9" d="M102.37,119.92a16.8,16.8,0,0,1-3.16,3L106,134a30.15,30.15,0,0,0,6.69-6.21Z"/><path class="cls-10" d="M106.17,109.29a16.83,16.83,0,0,1-.38,3.57l12.49,3.59a29.68,29.68,0,0,0,.87-7.16c0-.61,0-1.22-.05-1.83l-12.94,1.23c0,.2,0,.4,0,.6"/><path class="cls-11" d="M76.63,120.17,66.29,128A30,30,0,0,0,73,134.14l6.83-11a17.36,17.36,0,0,1-3.24-2.93"/><path class="cls-12" d="M72.82,106.64a16.75,16.75,0,0,1,1.24-4.17L62.44,96.68a29.7,29.7,0,0,0-2.56,8.8Z"/><path class="cls-13" d="M104.45,135l-6.82-11a16.55,16.55,0,0,1-4,1.62l2.41,12.78a29.42,29.42,0,0,0,8.39-3.35"/><path class="cls-14" d="M105.29,114.67a16.79,16.79,0,0,1-1.81,3.74l10.37,7.82a29.64,29.64,0,0,0,3.92-8Z"/><path class="cls-15" d="M91.81,125.89a15.93,15.93,0,0,1-2.42.18,15.71,15.71,0,0,1-2-.12L85,138.73a29.69,29.69,0,0,0,4.35.32,30.66,30.66,0,0,0,4.83-.39Z"/><path class="cls-16" d="M90.47,92.54a17.23,17.23,0,0,1,4.15.8l4.66-12.12a29.54,29.54,0,0,0-8.81-1.67Z"/><path class="cls-17" d="M85.59,125.63a16.35,16.35,0,0,1-4.12-1.55l-6.83,11a29.77,29.77,0,0,0,8.55,3.27Z"/><path class="cls-18" d="M84.35,93.28a17,17,0,0,1,4.24-.75v-13a29.48,29.48,0,0,0-8.94,1.63Z"/><path class="cls-19" d="M75.49,118.68a17.33,17.33,0,0,1-2-4L61,118.29a29.6,29.6,0,0,0,4.12,8.24Z"/><path class="cls-20" d="M79,96.13A16.61,16.61,0,0,1,82.6,94L77.9,81.84a29.74,29.74,0,0,0-7.66,4.69Z"/><path class="cls-3" d="M20.34,25.91a2.71,2.71,0,0,0-1-2.23A12.73,12.73,0,0,0,15.77,22a35.26,35.26,0,0,1-4.16-1.65Q6.36,17.8,6.36,13.29a6.34,6.34,0,0,1,1.31-4,8.53,8.53,0,0,1,3.7-2.67,14.38,14.38,0,0,1,5.39-1,12.64,12.64,0,0,1,5.22,1,8.3,8.3,0,0,1,3.59,3,7.7,7.7,0,0,1,1.29,4.39h-6.5a3.28,3.28,0,0,0-1-2.56,4,4,0,0,0-2.74-.91,4.48,4.48,0,0,0-2.76.77,2.28,2.28,0,0,0,.1,3.85A14.13,14.13,0,0,0,17.87,17a24.08,24.08,0,0,1,4.6,1.94q4.39,2.54,4.39,7a6.59,6.59,0,0,1-2.68,5.57,11.86,11.86,0,0,1-7.33,2,14.46,14.46,0,0,1-6-1.18,9,9,0,0,1-4-3.23,8.4,8.4,0,0,1-1.35-4.73h6.54a4.16,4.16,0,0,0,1.12,3.21,5.36,5.36,0,0,0,3.65,1,4.2,4.2,0,0,0,2.55-.7,2.29,2.29,0,0,0,.94-2"/><path class="cls-3" d="M51.78,6.06v17.7A10.18,10.18,0,0,1,50.5,29a8.28,8.28,0,0,1-3.68,3.36,13,13,0,0,1-5.66,1.15,11.24,11.24,0,0,1-7.78-2.56,9.13,9.13,0,0,1-2.89-7V6.06H37V24c.07,3,1.45,4.44,4.12,4.44a4,4,0,0,0,3.06-1.12,5.17,5.17,0,0,0,1-3.62V6.06Z"/><path class="cls-3" d="M70.17,25.91a2.71,2.71,0,0,0-1-2.23A12.73,12.73,0,0,0,65.6,22a35.26,35.26,0,0,1-4.16-1.65q-5.25-2.58-5.25-7.09a6.4,6.4,0,0,1,1.31-4,8.53,8.53,0,0,1,3.7-2.67,14.38,14.38,0,0,1,5.39-1,12.64,12.64,0,0,1,5.22,1,8.33,8.33,0,0,1,3.6,3,7.77,7.77,0,0,1,1.28,4.39h-6.5a3.28,3.28,0,0,0-1-2.56,4,4,0,0,0-2.74-.91,4.5,4.5,0,0,0-2.76.77,2.28,2.28,0,0,0,.1,3.85A14.27,14.27,0,0,0,67.7,17a24.2,24.2,0,0,1,4.61,1.94q4.38,2.54,4.38,7A6.57,6.57,0,0,1,74,31.44a11.86,11.86,0,0,1-7.33,2,14.5,14.5,0,0,1-6-1.18,9,9,0,0,1-4-3.23,8.4,8.4,0,0,1-1.35-4.73h6.54A4.16,4.16,0,0,0,63,27.54a5.36,5.36,0,0,0,3.65,1,4.2,4.2,0,0,0,2.55-.7,2.29,2.29,0,0,0,.94-2"/><polygon class="cls-3" points="101.63 11.1 93.52 11.1 93.52 33.1 87 33.1 87 11.1 79.04 11.1 79.04 6.06 101.63 6.06 101.63 11.1"/><path class="cls-3" d="M117.89,28.05H109L107.4,33.1h-7l9.92-27h6.13l10,27h-7Zm-7.37-5h5.81l-2.92-9.37Z"/><rect class="cls-3" x="129.26" y="6.06" width="6.5" height="27.03"/><polygon class="cls-3" points="163.25 33.1 156.77 33.1 147.18 16.28 147.18 33.1 140.67 33.1 140.67 6.06 147.18 6.06 156.75 22.89 156.75 6.06 163.25 6.06 163.25 33.1"/><path class="cls-3" d="M183.43,28.05H174.5l-1.56,5.05h-7l9.92-27H182l10,27h-7Zm-7.37-5h5.82L179,13.64Z"/><path class="cls-3" d="M194.36,33.1v-27h9.71q5.22,0,7.94,1.92a6.36,6.36,0,0,1,2.72,5.55,6.37,6.37,0,0,1-1,3.58,5.61,5.61,0,0,1-2.84,2.19,5.71,5.71,0,0,1,3.25,2.08,6,6,0,0,1,1.13,3.71,7.15,7.15,0,0,1-2.51,6c-1.68,1.33-4.16,2-7.46,2Zm6.52-15.77h3.4a4.8,4.8,0,0,0,3-.78,2.76,2.76,0,0,0,.91-2.25,2.93,2.93,0,0,0-1-2.47,5.32,5.32,0,0,0-3.18-.75h-3.19Zm0,4.27v6.48h4.27a4.11,4.11,0,0,0,2.71-.8,2.84,2.84,0,0,0,.95-2.28q0-3.37-3.36-3.4Z"/><polygon class="cls-3" points="225.79 28.08 237.13 28.08 237.13 33.1 219.27 33.1 219.27 6.06 225.79 6.06 225.79 28.08"/><polygon class="cls-3" points="257.02 21.62 246.78 21.62 246.78 28.08 258.88 28.08 258.88 33.1 240.26 33.1 240.26 6.06 258.92 6.06 258.92 11.1 246.78 11.1 246.78 16.8 257.02 16.8 257.02 21.62"/><path class="cls-3" d="M6.37,69.66V43.17H14.9a12.53,12.53,0,0,1,6.31,1.59,11.17,11.17,0,0,1,4.38,4.5,13.51,13.51,0,0,1,1.59,6.5V57a13.59,13.59,0,0,1-1.54,6.52A11.13,11.13,0,0,1,21.31,68a12.18,12.18,0,0,1-6.23,1.65ZM12.75,48.1V64.75H15a5,5,0,0,0,4.22-2A9.52,9.52,0,0,0,20.67,57V55.83a9.44,9.44,0,0,0-1.48-5.78A5,5,0,0,0,14.9,48.1Z"/><polygon class="cls-3" points="45.48 58.42 36.11 58.42 36.11 64.75 47.3 64.75 47.3 69.66 29.72 69.66 29.72 43.17 47.34 43.17 47.34 48.1 36.11 48.1 36.11 53.69 45.48 53.69 45.48 58.42"/><polygon class="cls-3" points="61.3 62.45 66.58 43.17 73.71 43.17 64.8 69.66 57.81 69.66 48.97 43.17 56.05 43.17 61.3 62.45"/><polygon class="cls-3" points="91.31 58.42 82.02 58.42 82.02 64.75 93.13 64.75 93.13 69.66 75.64 69.66 75.64 43.17 93.16 43.17 93.16 48.1 82.02 48.1 82.02 53.69 91.31 53.69 91.31 58.42"/><polygon class="cls-3" points="101.71 64.75 111.81 64.75 111.81 69.66 95.32 69.66 95.32 43.17 101.71 43.17 101.71 64.75"/><path class="cls-3" d="M135.57,57a15.61,15.61,0,0,1-1.44,6.86,10.62,10.62,0,0,1-4.08,4.59A11.34,11.34,0,0,1,124,70a11.62,11.62,0,0,1-6-1.55A10.67,10.67,0,0,1,113.93,64a15.14,15.14,0,0,1-1.54-6.64V55.89A15.71,15.71,0,0,1,113.82,49a10.63,10.63,0,0,1,4.09-4.59A11.46,11.46,0,0,1,124,42.81a11.32,11.32,0,0,1,6,1.6A10.79,10.79,0,0,1,134.09,49a15.25,15.25,0,0,1,1.48,6.77Zm-6.5-1.11a11.21,11.21,0,0,0-1.31-6,4.23,4.23,0,0,0-3.78-2q-4.8,0-5.07,7.2l0,2a11.49,11.49,0,0,0,1.29,6,4.49,4.49,0,0,0,7.57,0,11.15,11.15,0,0,0,1.32-5.91Z"/><path class="cls-3" d="M144.49,60.67v9H138.1V43.17h10.57a12.26,12.26,0,0,1,5.38,1.12,8.51,8.51,0,0,1,3.62,3.18A8.76,8.76,0,0,1,159,52.16a7.65,7.65,0,0,1-2.77,6.19,11.5,11.5,0,0,1-7.62,2.32Zm0-4.93h4.18a3.94,3.94,0,0,0,2.83-.93,3.43,3.43,0,0,0,1-2.62,4.25,4.25,0,0,0-1-3,3.51,3.51,0,0,0-2.72-1.13h-4.26Z"/><polygon class="cls-3" points="169.68 43.17 175.59 61.6 181.49 43.17 189.89 43.17 189.89 69.66 183.49 69.66 183.49 63.47 184.11 50.81 177.7 69.66 173.48 69.66 167.06 50.79 167.68 63.47 167.68 69.66 161.29 69.66 161.29 43.17 169.68 43.17"/><polygon class="cls-3" points="208.52 58.42 199.12 58.42 199.12 64.75 210.34 64.75 210.34 69.66 192.74 69.66 192.74 43.17 210.38 43.17 210.38 48.1 199.12 48.1 199.12 53.69 208.52 53.69 208.52 58.42"/><polygon class="cls-3" points="234.61 69.66 228.26 69.66 218.88 53.18 218.88 69.66 212.49 69.66 212.49 43.17 218.88 43.17 228.25 59.65 228.25 43.17 234.61 43.17 234.61 69.66"/><polygon class="cls-3" points="258.92 48.1 250.97 48.1 250.97 69.66 244.58 69.66 244.58 48.1 236.78 48.1 236.78 43.17 258.92 43.17 258.92 48.1"/></g></svg>