<svg id="レイヤー_1" data-name="レイヤー 1" xmlns="http://www.w3.org/2000/svg" viewBox="0 0 202 202"><defs><style>.cls-1{fill:#231f20;}.cls-2{fill:#fff;}</style></defs><title>アートボード 1</title><circle class="cls-1" cx="101" cy="101" r="100"/><path class="cls-2" d="M34.51,82.46a11,11,0,0,1,3.06,8.24H32.4c0-2.33-.44-3.17-1.33-4.13a4.64,4.64,0,0,0-3.45-1.65,4,4,0,0,0-3.06,1.23,5.27,5.27,0,0,0-1.34,3.71,8.18,8.18,0,0,0,2.3,5.77c1,1.1,3.37,2.75,7.08,5a11.62,11.62,0,0,1,5.93,10.71,11.36,11.36,0,0,1-2.87,8,9.51,9.51,0,0,1-7.27,3.09,10.18,10.18,0,0,1-7.85-3.09q-2.87-3.09-2.87-9.27l5.17-.07c0,2.88.51,4.12,1.53,5.22a4.61,4.61,0,0,0,3.44,1.65,5.19,5.19,0,0,0,4-1.45,5.84,5.84,0,0,0,1.34-4.12q0-4.53-5-7.42a33.71,33.71,0,0,1-7.84-6c-1.66-1.78-2.49-4.4-2.49-7.83a10.72,10.72,0,0,1,2.68-7.62,9,9,0,0,1,6.89-2.89A9.2,9.2,0,0,1,34.51,82.46Z"/><path class="cls-2" d="M59.8,82.66C61.59,84.59,62.48,89,62.48,93s-.89,8.37-2.68,10.29-4,2.68-7.08,2.68H48.13V122H42.77V80h9.95A9.18,9.18,0,0,1,59.8,82.66Zm-11.67,17.9h4.59a4.46,4.46,0,0,0,3.45-1.24c.76-.82,1.15-3.9,1.15-6.37s-.39-5.55-1.15-6.37a4.46,4.46,0,0,0-3.45-1.24H48.13Z"/><path class="cls-2" d="M84.33,82.46c1.66,1.78,2.49,6.16,2.49,10.28s-.08,7.6-1.36,9S83.28,104,83.28,104l4.41,18H81.76l-4.09-16.1H73.24V122H67.88V80H79A7.09,7.09,0,0,1,84.33,82.46Zm-11.09,18.1h3.82a4.21,4.21,0,0,0,3.26-1.24c.76-.82,1.14-3.9,1.14-6.37s-.38-5.55-1.14-6.37a4,4,0,0,0-3.07-1.24h-4Z"/><path class="cls-2" d="M98.91,112.33a4.37,4.37,0,0,0,1,3.09,4,4,0,0,0,3.06,1.24,3.47,3.47,0,0,0,2.68-1,4.64,4.64,0,0,0,1.15-3.3V80h5.36v32.35q0,5-2.49,7.63c-1.53,1.64-3.83,2.47-6.89,2.47a8.24,8.24,0,0,1-6.31-2.68,10.23,10.23,0,0,1-2.87-7.21V80h5.35Z"/><path class="cls-2" d="M134.07,83.9a13.09,13.09,0,0,1,3.25,9.27v14.42q0,7-3.25,10.51c-2.42,2.61-4.44,3.92-8.9,3.92h-7.08V80h8.8C130.2,80,131.65,81.29,134.07,83.9Zm-10.63,32.76h2.87c2.3,0,2.59-.62,3.74-1.86s1.92-3.57,1.92-6.59v-15a8.16,8.16,0,0,0-1.92-5.77c-1.28-1.37-1.51-2.06-3.54-2.06h-3.07Z"/><path class="cls-2" d="M158.51,82.66a9.34,9.34,0,0,1,2.49,6.6v5.13h-5.36v-4.1a5.55,5.55,0,0,0-1.34-3.92,2.93,2.93,0,0,0-2.78-1.19,3.23,3.23,0,0,0-2.87,1.19,5.58,5.58,0,0,0-1.53,3.92v21.22a5.48,5.48,0,0,0,1.34,3.91c.89,1,1.11,1.4,2.64,1.4a3.75,3.75,0,0,0,3.2-1.4,5.52,5.52,0,0,0,1.34-3.91V103.9h-3.55V98.54H161V106s-.1,5-.29,7a10.38,10.38,0,0,1-3.6,7.2,8,8,0,0,1-5.87,2.14c-3.06,0-4.76-.76-6.42-2.54a10.87,10.87,0,0,1-3.06-7.62V89.67a10,10,0,0,1,2.87-7,8.23,8.23,0,0,1,6.84-3A8.61,8.61,0,0,1,158.51,82.66Z"/><path class="cls-2" d="M184,85.34H172.08V97.91h10.53v5.36H172.08v13.39h12.25V122h-17.6V80H184Z"/></svg>