<svg id="Layer_1" data-name="Layer 1" xmlns="http://www.w3.org/2000/svg" viewBox="0 0 202 202"><defs><style>.cls-1,.cls-3{fill:#fff;}.cls-2{fill:#007042;}.cls-3{opacity:0.99;isolation:isolate;}</style></defs><title>Artboard 1</title><g id="g4387"><path id="path3040" class="cls-1" d="M201,101A100,100,0,1,1,101,1,100,100,0,0,1,201,101Z"/><g id="g4381"><path id="inner_artwork" data-name="inner artwork" class="cls-2" d="M100.16,36.55a52.48,52.48,0,0,1,10.1,7.37L109.15,45c-5.61-.6-11.52.15-16.84.23-.59-.6-1.79-1.49-.67-2.24l8.52-6.48Zm99.19,69.32c.07,2.52.31,4.69-.68,7.26-10.24,2.9-17-7.89-26.92-6.26l1.12,5.59c9.2.3,14.95,9.08,24.45,8.7-1.35,2.69.61,9.75-5.38,6.93-6.21-1.49-10.69-6.93-17.5-6.93-.82,1.5-.3,3.58-.44,5.35,7.17,1.12,12.34,7.16,19.51,8.27-.67,2.46-1.34,5.2-3.36,6.7-5.84-1.41-10.4-6.63-16.61-6.48l-1.11,5.14c5.9.15,9.72,5.35,15,6.91.14,2.16-1.8,4.1-2.92,6-4.72-1.41-8.31-5.44-13.69-5.14-.08-2,1.13-4.31.67-6.47-6.05,1.79-10.1-3.8-14.58-7.15-.13-11-11.74-18.18-12.36-28.46a15.26,15.26,0,0,1,1.14-6.58c3.82-8.78,2.62-20.18-1.57-28.36a16.09,16.09,0,0,0-5.62-5.13c3.07,6.48,6.81,14.13,4.94,22.1-.21,6.14-3.86,12-3.9,18a12.33,12.33,0,0,0,1.66,6.36c4.87,8.72,13.62,17,10.33,27.91-.91,3.35-3.6,6-4.27,9.37,5.69,4.69,11.07,10,18.62,10.27,2.69-1.71,1.2-9.29,6.73-5.8l8.08,4c-.59,2.15-2.4,4.08-4,5.56-3.06-1.48-6.06-3.27-9.88-3.12a5.78,5.78,0,0,0-2,4.23,18,18,0,0,1,7.41,3.14c-1,2.24-3.08,3.64-4.95,5.35L161,170.94c-1,1.49-3.22,3.05-2.46,4.69a13.06,13.06,0,0,1,4,2.46c-2.77,3-6.28,4.89-9.65,6.91-2.91-9.45-12.49-16.08-11.67-27l-.44-.44c-2.25,2.51-1.5,6.54-1.36,9.81,2.7,6.85,9.13,12.14,10.1,19.65-1.12,1.93-3.66,2.31-5.61,3.13.23-13.54-20.41-23.8-7.18-37.5,4.42-6.7,11.81-13.1,9.19-22.34-2.69-8.91-12.2-14.43-12.12-24.43l0-.78c2.16-10.42,8.75-21.5,3.36-32.59-1.5-4.46-4.86-9.52-9.42-11.39a31.78,31.78,0,0,1,5.61,30.81c-2,4.14-4.66,9.08-4.93,14h0a11.64,11.64,0,0,0,2,7.47c5.16,8.34,14.13,17.5,9,28.36-5.83,8.7-16,17.56-10.32,29,4.11,6.84,10.48,13.68,8.76,22.09l-6.73,2.23c4.49-15.69-17.51-24.92-8.3-40.62,5.68-8.41,15.85-16.3,10.1-27.46-3.44-6.91-10.55-11-10.33-19.64l.25-1.45c2.31-12.26,11.68-23.86,5.13-37a23.36,23.36,0,0,0-9-10l-.23.23a26.94,26.94,0,0,1,5.84,29.23c-1.92,5.72-6.13,11.41-7,17.54a14.29,14.29,0,0,0,1.62,9c4.86,7.66,13.38,15.78,8.06,25.69-5.6,8.17-15,16.13-11.22,26.76,4.12,9.31,12.71,18.17,8.07,29.71l-7,1.56c5.54-11.24-2.76-22.4-7.62-32.15-5.91-14,12.7-20.69,13-33.48-.07-8.26-8.89-12.94-10.75-20.53-3.82-3.21-7.78,1.27-12.34.44-3.37.67-8.55-4.61-10.56,1.12-2.4,8.4-13.31,14.58-8.51,24.55C85,147.44,96,153.91,92.3,165.38c-3.28,10.71-14.13,20.9-7.4,33.25-2.77-.89-7.93.82-7.86-3.58-4.26-15,13.92-23.67,8.3-38.61-2.61-9.16-14.51-14.22-11.89-25.23,1.94-9.07,12.16-15.4,10.73-25.33a15.19,15.19,0,0,0-.62-2.57c-3.82-10.72-11.6-21.43-7-33.94,1.27-3.57,3.82-6.62,6.05-9.82-7.4,4-11.14,12.28-11,20.76-.32,9.23,6.52,17.13,7.5,25.57a15.53,15.53,0,0,1-2.57,10.59c-4.86,6.56-11.21,13.47-8.3,22.11s13.69,14,13,24.11c-.08,12-14.06,19.43-10.1,32.82l-7-2.24c-2.76-11.91,9.95-18,10.09-29,1.8-12.66-14.43-17.36-13.46-29.7-.07-9.38,8.23-15.32,11.9-23.21a15.07,15.07,0,0,0,.75-5.47c-.45-8.73-8.35-15.54-7-25.35a30.91,30.91,0,0,1,7.63-19c-6.51,2.6-9.19,10-11,16.3-3.12,10,4.32,19,5.07,28,.33,4-.64,7.91-4.39,11.94-5.39,6.32-10.86,14.29-7,22.78C61,150,73.91,157.26,68.3,168.94c-3.06,7.37-10.4,12.95-10.09,21.65a19.14,19.14,0,0,1-5.61-3.12c0-11.09,15.85-18,8.29-29.69-.66,2.3-.81,5.44-1.33,8-2.62,6.77-8.23,12.2-10.33,19.2a30.84,30.84,0,0,1-10.09-7.15l4-2.46a12.61,12.61,0,0,0-2.69-4c-2.63-.37-4.35,1.34-6.51,2a33.44,33.44,0,0,1-5.17-5.13c1.34-3.81,11.83-.66,6.52-6.91-3.59-2.24-7.19.95-10.33,2.44l-4.26-5.35c3.67-2.23,7.32-5.36,11.88-4.46,1.12,2,1.2,5,3.37,6,7.7-.15,13.16-5.95,19.07-10.49-4.12-6.09-7.47-14.51-3.81-21.88,2.93-7.38,10.56-13.6,10.91-21.77a14.48,14.48,0,0,0-1-5.91c-4-10.35-5.46-24.33,2.24-33.49-4.19,1.12-6.66,6.32-8.08,10.26-4.63,10.1,1.22,19.46,1.43,29.14a21.39,21.39,0,0,1-.54,5.25c-4,8-10.39,14.94-11.44,24.1-4.56,2.9-8.31,8-14.81,6.26a17.16,17.16,0,0,0,.89,6.25c-5.15-.22-8.67,3.56-13,5.35-2.31-.74-2.92-3.71-3.81-5.79,5.08-1.71,8.75-6.78,14.58-6.7.68-1.87-.38-3.58-.68-5.37-7.25-3.2-18.76,15.85-19.73-.67,7.26-.44,11.89-7.14,19.07-7.81l.22-5.35c-8.15-.82-13.4,7.52-21.55,6.7L4.12,121c9.42.58,15-7.82,24-8.27,1.19-1.57,1.33-3.87,1.56-6-9.8-1.27-16.52,9.54-26.92,6.26,0,0-.36-4.5-.55-7h0c-.07-1-.14-1.68-.14-1.68,9.28,3.58,17.43-3,25.36-6.47,2-.6,5.16.44,6.07-1.79-.08-1.71,3.06-3.71.45-4.9-11.6-1.57-19.31,12.35-31.2,6l-.89-1.79C4.36,61.63,23.42,29.12,55.06,13.12,67.87,5.84,83.79,2.12,99.84,2c19.37-.16,38.94,4.9,53.51,15.15,14.14,8.63,27.66,22.85,35,37.29,7,12.65,10.25,26.84,11.22,41.95-12.27,9.22-20.5-8.69-33-4.68.67,1.94,1,4,2.47,5.58,11.07-.08,18.7,11.46,30.29,6.91v1.68ZM58.42,64.46c-7.78-5.06-17.64-.3-24.89,2.46-.68-6.78-3.44-13-9.21-17.41a6,6,0,0,0-2-.9,1.16,1.16,0,0,0-1.12.67c2.61,16-7.84,27.15-15.24,39.29,2.46,2,6.43,1.7,9.42,1.11C23.2,86.56,30.68,81.12,40,83,42.79,78.3,47.44,73.76,51.24,70c2.33-2,5.53-3.28,7.18-5.58Zm23.79,10c-.15,1,.07,2.68,1.57,2,2.32-3.2,6.43-.67,9-.44v-.9C91.36,73,88.49,71.9,85.57,72a10.57,10.57,0,0,0-2,.28,1.73,1.73,0,0,0-1.35,2.21Zm36.57-9.58c-2.09-4.62-6.87-6.48-11.22-7.6a58.68,58.68,0,0,0-6.53-.46H99.8c-6.13.12-12,1.69-15.57,6.71-.51,1.42-2.77,3.41-.67,4.68,4.71-.3,10.09-.89,13.23,3.13,0,3.58,2.32,8.34-1.57,10.05-3.22-3-7,1.26-10.54-1.12-1.65-1-2.69.16-3.37,1.58a26.19,26.19,0,0,0,12.56,24.53c3.51,1.26,8.24,2.46,11.91.67C114.6,103,118.26,93.64,119.9,85c-.22-1.64-.14-4.84-2.46-4.92-2.61,1.65-6.43.67-9.2,0-1.64.53-1.71,2.91-3.58,3.37l-1.14-.91c-1-4.08-1.57-9.89,2.25-12.72,4.26-1.71,9.28-2.46,13.69-1.11.82-1.41-.45-2.53-.68-3.79Zm-4.5,7.33-.88,0c-1.57,1-6.13.29-4.49,3.79,2.85-2.24,6.81-.67,9.65.44,1.06-.52.83-1.56.9-2.46C118.54,72.37,116.36,72.21,114.28,72.25Zm32.56-31.46c-5.54-.29-10.17,2.84-15.26,4.25-.44-4.31,2.85-8.85,3.6-13.18-8.23.53-14.74,5.46-21.54,9.39-1.58-3.78-3.16-7.59-4.72-11.39l9-8.48.23-1.12L106,19.59c-2.09-3.64-2.91-8-5.38-11.38-2,3.8-3.38,7.81-5.39,11.61l-12.11.67v.89l9.19,8.25c-1.13,4.25-2.17,8.86-4.93,12.06-5.39-3.2-10.7-6.7-16.6-8.93-1.42-.45-3.45-1.19-4.72-.22,1.87,4.09,4.48,8.49,4,13-2.47-.45-4.41-2-6.73-2.69-2.77-.75-6.06-2.22-8.76-1.33,4.49,6.25,8.16,12.79,9.42,20.3,14.89-7.15,32.26-11.08,50.28-8,8.45,1.34,16.22,4.76,23.78,7.58.29-7.88,5.3-14.22,8.75-20.55Zm25.57,42.87c7.62,2,15.27,10.27,23.34,4.91-7-11.61-17.49-22.33-14.58-37.5a1.74,1.74,0,0,0-1.34-2.23c-4.56,1.85-8.09,6.32-9.89,10.71a68.18,68.18,0,0,1-2.23,7.81c-5.46-2.83-11.29-5.56-18-4.9-2.4.29-5.84.45-6.28,2.9,7.55,4,13.76,10.72,18.39,17.86a36.09,36.09,0,0,1,10.54.44ZM92.53,94.15l.22,1.34c2.92,1.94,3.82,5.22,7.87,4.92,3.59.22,6.28-3.13,8.07-5.81-4.86-.66-10.77.37-16.16-.45Zm4-6c.15.6-.37,1.49.45,1.79,2.39-.51,6.73,1.27,8.07-1.56A5.41,5.41,0,0,0,101,86.84,8.15,8.15,0,0,0,96.57,88.12Z"/><g id="g4377"><path id="rect3815" class="cls-3" d="M92.54,85.54h16.4v6.71H92.54Z"/><path id="path3032-6" class="cls-2" d="M95.57,89.13c2.12.5,2.64,1.24,4.32,1.45,1.78,0,1.52-.39,4.63-1.46a.53.53,0,0,0,.13-.86c-1.93-1.9-3.26-.54-4.47-.51-1.6,0-3.1-1.36-4.67.44-.27.36-.41.72.06.94Z"/></g></g><g id="text4354"><path id="path4430" class="cls-2" d="M172.68,199.11v-9.55h-3.41v-1.94h9.13v1.94H175v9.55Z"/><path id="path4432" class="cls-2" d="M179.87,199.11V187.62h3.48l2.08,7.84,2.06-7.84H191v11.49h-2.15v-9.05l-2.28,9.05H184.3L182,190.06v9.05Z"/></g></g></svg>