<?xml version="1.0" encoding="utf-8"?>
<!-- Generator: Adobe Illustrator 23.0.0, SVG Export Plug-In . SVG Version: 6.00 Build 0)  -->
<svg version="1.1" id="Layer_1" xmlns="http://www.w3.org/2000/svg" xmlns:xlink="http://www.w3.org/1999/xlink" x="0px" y="0px"
	 viewBox="0 0 289.1 76.5" style="enable-background:new 0 0 289.1 76.5;" xml:space="preserve">
<style type="text/css">
	.st0{fill-rule:evenodd;clip-rule:evenodd;fill:#1D1D1B;}
</style>
<polygon class="st0" points="3.2,2.5 28.2,2.5 28.2,3.2 22.1,3.2 40.7,54.3 56.4,3.2 50.3,3.2 50.3,2.5 63.7,2.5 63.7,3.2 57.8,3.2 
	35.6,73.8 9.8,3.2 3.2,3.2 3.2,2.5 "/>
<path class="st0" d="M171.4,1.3v24.5h-0.6c-0.9-4.9-2.7-9.5-5.1-13.8c-3.1-5-8-10.6-14.4-10.6c-14.7,0-16,26.3-16,36.4
	c0,9,0.7,18.3,4,26.7c2.3,5.9,5.6,8.8,11.7,8.8c4.9,0,10.1-2.5,12.7-6.7c0.6-1.1,0.8-2.3,0.7-3.6V44H158v-0.7h23.5V44H176v28.4h-0.5
	c-1.3-2.3-3.7-3.8-6.4-3.8c-2,0.1-4,0.7-5.8,1.7l-1.6,0.9c-3.4,1.7-7.2,2.6-11,2.8c-18.2,0-27.9-19.4-27.9-35.6
	c0-11.8,4.5-24.4,14.1-31.8c4.3-3.3,9.5-5.8,15-5.8c2.2,0.1,4.3,0.6,6.3,1.5l1.5,0.6c1.7,0.7,3.5,1.1,5.3,1.2c2.2,0,4.2-1.5,6-2.8
	L171.4,1.3z"/>
<path class="st0" d="M178.4,2.5h25.1v0.7h-6.6v54.4c0,8.5,8.8,13.7,16.5,13.7c8.3,0,15.2-5.8,15.2-14.2V3.2h-7.9V2.5h64.7v25.2h-0.5
	c-0.7-6.7-2-13.5-6.6-18.7s-11-5.8-17.5-5.8h-7v32.5c1.5,0.2,2.9,0.2,4.4,0.3c8.8,0,11.1-6.1,11.5-13.5h0.6v28.5h-0.6
	c-1.1-6.8-4.1-14.1-12.1-14.1c-1.3,0-2.5,0.1-3.8,0.2v34.7h10.5c5.5-0.1,10.8-2.3,14.7-6.2c3.3-3.2,5.5-7.4,6.4-12
	c0.4-2.6,0.7-5.1,0.8-7.7h0.6v26.6h-50.6v-0.7h5.9V3.2h-12.4v54.1c0,11.2-10.6,16.1-20.6,16.1c-11.3,0-23.7-5.5-23.7-18.4V3.2h-6.9
	L178.4,2.5L178.4,2.5z"/>
<path class="st0" d="M86.6,74.5c-8.3,0-16.2-4.7-21.4-11c-5.7-7.3-8.8-16.4-8.7-25.8c-0.1-8.9,2.7-17.7,8-24.8C69.9,6,77.9,1,86.8,1
	c8.2,0,16.1,4.7,21.2,11c5.7,7.4,8.8,16.4,8.7,25.8c0.1,8.9-2.7,17.6-8,24.8C103.4,69.5,95.5,74.5,86.6,74.5L86.6,74.5z M104,37.7
	c0-10.2-3.6-35.7-17.4-35.7S69.2,27.5,69.2,37.7s3.6,35.7,17.4,35.7S104,47.9,104,37.7z"/>
</svg>
